<svg width="66" height="67" viewBox="0 0 66 67" fill="none" xmlns="http://www.w3.org/2000/svg">
<path d="M9.70142 57.152C9.91558 57.3668 10.1414 57.5661 10.3607 57.7718C10.6404 58.0358 10.9134 58.3063 11.2007 58.5574C11.5372 58.8526 11.8867 59.1294 12.2335 59.4104C12.4191 59.5604 12.5985 59.7209 12.7875 59.8685C13.8741 60.7072 15.0112 61.4782 16.1925 62.1772C16.8248 62.5514 17.468 62.9021 18.1222 63.2295C18.2587 63.2981 18.4004 63.3563 18.5382 63.425C19.0592 63.6773 19.5826 63.9271 20.1146 64.1536C20.6271 64.3696 21.1487 64.5626 21.6702 64.7514C21.8248 64.8084 21.9775 64.8731 22.1328 64.9287C22.749 65.1424 23.3727 65.3339 23.9997 65.5124C24.0651 65.5292 24.1292 65.5525 24.1952 65.572V47.457L9.70142 57.152Z" fill="#000D7F"/>
<path d="M41.7213 65.6395C41.7783 65.6239 41.8344 65.6058 41.8907 65.5902C42.4965 65.422 43.1002 65.2421 43.7001 65.0377C43.7408 65.0221 43.7816 65.0079 43.8223 64.9936C44.4319 64.7839 45.0389 64.5574 45.6407 64.3089C45.8555 64.2184 46.0692 64.1201 46.2833 64.0216C46.7175 63.8328 47.153 63.6438 47.5821 63.4341C48.2376 63.1105 48.8879 62.7677 49.5298 62.3975C49.6437 62.3315 49.7525 62.259 49.8657 62.1917C49.9362 62.1502 50.0035 62.1037 50.0733 62.061C50.5406 61.7776 50.9984 61.4863 51.4466 61.1874C51.6407 61.0566 51.8284 60.9194 52.0186 60.7861C52.3499 60.5533 52.6773 60.3164 52.997 60.0731C53.1878 59.9268 53.3762 59.7807 53.5626 59.6317C53.8875 59.3729 54.2058 59.1076 54.5189 58.8397C54.6769 58.7039 54.8367 58.5705 54.9914 58.4334C55.4074 58.0592 55.8139 57.6801 56.2079 57.2905C56.2435 57.2556 56.281 57.2219 56.3167 57.187L41.7213 47.4883V65.6395Z" fill="#000D7F"/>
<path d="M56.4221 10.5631C54.4609 8.59517 52.2573 6.88471 49.8643 5.47292C49.2839 5.12992 48.6912 4.81161 48.0933 4.50613C47.9528 4.43377 47.8118 4.36646 47.6706 4.29649C47.1426 4.03649 46.6088 3.78797 46.0685 3.55618C45.9844 3.51868 45.8995 3.48118 45.8148 3.44618C44.5013 2.89739 43.1544 2.43231 41.7821 2.05373L41.7213 2.03809V20.3809L56.4221 10.5631Z" fill="#000D7F"/>
<path d="M24.1952 2.0498C22.8792 2.41242 21.587 2.85635 20.326 3.37904C20.1947 3.43589 20.0634 3.49553 19.9327 3.55622C19.4286 3.77122 18.9265 3.9925 18.4301 4.23569C17.8982 4.50103 17.3712 4.78233 16.8492 5.07961C16.7412 5.13779 16.6312 5.1908 16.5237 5.25161C16.4804 5.27891 16.4384 5.30343 16.3956 5.33192C16.3283 5.37327 16.2611 5.41475 16.1924 5.4561C16.1614 5.47293 16.1323 5.49493 16.1018 5.51176C15.5828 5.82376 15.0762 6.14691 14.5818 6.48119C14.409 6.59768 14.2414 6.71934 14.0712 6.83703C13.7154 7.08684 13.3653 7.34226 13.0209 7.60329C12.8431 7.73913 12.6669 7.87674 12.4923 8.01611C12.15 8.28793 11.8146 8.5666 11.486 8.85211C11.3398 8.97894 11.1904 9.1006 11.0467 9.23011C10.5834 9.64292 10.1304 10.0662 9.69492 10.5024L9.69226 10.5062L24.1952 20.1725V2.0498Z" fill="#000D7F"/>
<path d="M38.1693 26.7818H65.255C64.9224 25.2534 64.4804 23.7509 63.9324 22.2858H62.7896L63.7001 21.6684C63.4315 20.9903 63.1331 20.3211 62.8168 19.656C62.7623 19.5395 62.7087 19.4257 62.6523 19.3117C62.325 18.6414 61.978 17.9774 61.5995 17.3225C61.2799 16.7673 60.9401 16.2315 60.5933 15.7047L50.8564 22.2858H42.5036L57.8179 12.0513C57.367 11.5401 56.9017 11.044 56.4221 10.563L41.7213 20.3808V2.03796C41.7006 2.0316 41.6798 2.02643 41.6584 2.02113C40.509 1.71532 39.3444 1.46998 38.1693 1.28613V26.7818Z" fill="white"/>
<path d="M38.1693 40.7432V66.3865C38.7459 66.2972 39.3212 66.1923 39.8952 66.076C39.9961 66.054 40.0964 66.028 40.1974 66.006C40.6982 65.8986 41.1985 65.7835 41.696 65.6475C41.7031 65.646 41.7101 65.6438 41.7168 65.641L41.7213 65.6398V47.4886L56.3167 57.1873L56.3277 57.1756C57.8918 55.6124 59.2933 53.8944 60.5105 52.0481L50.6862 45.4956L58.6307 45.4916L62.6938 48.2042C63.0167 47.5351 63.3125 46.8543 63.5894 46.1672L62.5974 45.4916H63.8541C64.1362 44.7449 64.391 43.9882 64.6183 43.2216C64.6384 43.1556 64.6564 43.0884 64.6753 43.0222C64.8953 42.2716 65.0926 41.5106 65.2583 40.7432L38.1693 40.7432Z" fill="white"/>
<path d="M27.6875 1.29395C27.1155 1.38595 26.5452 1.49295 25.9766 1.61495C25.9365 1.62395 25.8965 1.63443 25.8563 1.64344C25.3011 1.7651 24.7472 1.8971 24.1952 2.04977V20.1725L9.69229 10.5061L9.68713 10.5113C8.91537 11.2842 8.1834 12.0959 7.49408 12.9431L7.48242 12.96C6.7978 13.7998 6.15828 14.6704 5.56384 15.5717L5.56053 15.5742L15.6522 22.2885L7.7309 22.286L3.38962 19.387L3.3876 19.3922C3.06145 20.0652 2.76182 20.7472 2.48166 21.4396L2.47781 21.4499L3.76227 22.286H2.14967L2.14583 22.2937C1.88767 22.9887 1.65602 23.6914 1.44371 24.4019C1.41787 24.4899 1.39256 24.5819 1.36671 24.6699C1.16871 25.3559 0.988703 26.0443 0.835403 26.7406L0.825745 26.782H27.6875V1.29395Z" fill="white"/>
<path d="M0.774597 40.7432L0.781097 40.7755C0.947417 41.5521 1.14263 42.3248 1.36673 43.0935C1.37839 43.1323 1.39138 43.1712 1.40291 43.2099C1.62303 43.9553 1.8709 44.6952 2.14651 45.4295C2.15419 45.4502 2.16137 45.4709 2.16985 45.4915H3.32484L2.41254 46.1153C2.42221 46.1413 2.43321 46.1645 2.44289 46.1905C2.68889 46.7961 2.95801 47.3992 3.24135 47.9972C3.31265 48.146 3.38184 48.2935 3.45499 48.4397C3.74483 49.0299 4.05415 49.614 4.38298 50.1921C4.40816 50.2361 4.43016 50.2828 4.45547 50.3268C4.80947 50.9376 5.18047 51.5338 5.56847 52.1153L15.5099 45.4915L23.5029 45.4774L8.32053 55.6847C8.53271 55.9255 8.756 56.1507 8.974 56.3837C9.20963 56.6335 9.44 56.8935 9.68262 57.1357L9.70145 57.1525L24.1952 47.4575V65.5725L24.2049 65.575C24.5997 65.6838 24.9995 65.7743 25.3981 65.8663C25.6039 65.9155 25.8096 65.9685 26.0168 66.0151C26.4219 66.0991 26.8296 66.1716 27.2379 66.2455C27.3874 66.27 27.5375 66.292 27.6875 66.314V40.7432H0.774597Z" fill="white"/>
<path d="M60.7897 22.2868H63C62.8511 22.0232 62.7083 21.7612 62.5507 21.501L60.7897 22.2868Z" fill="#000D7F"/>
<path d="M3.3586 21.4502C3.23622 21.7285 3.11383 22.0053 3 22.2863H4.76225L3.3586 21.4502Z" fill="#000D7F"/>
<path d="M3.1698 45.3086C3.18198 45.3416 3.19331 45.3764 3.20549 45.4113C3.30818 45.682 3.41277 45.9527 3.52029 46.2192C3.53163 46.2479 3.54297 46.2704 3.55429 46.2971L4.99998 45.3086H3.1698Z" fill="#000D7F"/>
<path d="M61.5974 45.501L62.5894 46.1766C62.6793 45.9526 62.7693 45.7275 62.8541 45.501H61.5974Z" fill="#000D7F"/>
<path d="M65.9985 33.6351C65.9967 33.1472 65.985 32.6567 65.961 32.1661C65.9572 32.0833 65.9526 31.9993 65.9481 31.9151C65.9196 31.4091 65.8802 30.9017 65.8284 30.3984C65.8219 30.3336 65.8155 30.2715 65.809 30.2054C65.75 29.6644 65.6782 29.1196 65.5915 28.5799C65.5877 28.5541 65.585 28.5321 65.5812 28.5088C65.488 27.9303 65.3793 27.3548 65.255 26.7822H38.1693V1.28655C36.4889 1.01529 34.7903 0.872509 33.0882 0.85943C31.2791 0.85613 29.4728 1.00155 27.6875 1.29424V26.7823H0.825748L0.821903 26.7991C0.450874 28.4927 0.213069 30.2128 0.110645 31.9436C0.108125 31.985 0.107462 32.0276 0.105472 32.0718C0.0764723 32.5933 0.0596071 33.1188 0.0556371 33.6415C0.0551071 33.7284 0.0569646 33.8112 0.0569646 33.8979C0.0569646 34.3845 0.0673412 34.8711 0.0881078 35.3576C0.0926078 35.4561 0.0984408 35.5544 0.103611 35.6514C0.129457 36.1304 0.165459 36.6101 0.211612 37.0907C0.220762 37.185 0.230432 37.2835 0.240772 37.378C0.293122 37.8685 0.356603 38.3551 0.430423 38.843C0.443273 38.9258 0.454268 39.0073 0.467258 39.0902C0.550748 39.6093 0.646436 40.1256 0.754566 40.6432C0.761726 40.6756 0.76809 40.7092 0.77457 40.7429H27.6875V66.3137C27.8415 66.3384 27.995 66.3642 28.149 66.3862C28.8213 66.4899 29.4962 66.5817 30.1744 66.645C30.459 66.667 30.7452 66.6827 31.0305 66.6995C31.7151 66.7435 32.3998 66.7913 33.0882 66.7913C33.9205 66.7913 34.7533 66.755 35.5861 66.689C35.6094 66.6878 35.6333 66.6852 35.6573 66.6839C36.4952 66.6167 37.3326 66.5175 38.1693 66.3862V40.7428H65.2582C65.5018 39.6113 65.686 38.4679 65.8102 37.3172C65.8149 37.2795 65.8167 37.2447 65.8207 37.2072C65.8757 36.6804 65.9184 36.1519 65.9487 35.6218C65.9533 35.5414 65.9552 35.4625 65.9592 35.3836C65.983 34.8918 65.998 34.3973 65.9998 33.9055C66.0005 33.8163 65.9992 33.727 65.9985 33.6351Z" fill="#D41800"/>
<path d="M20.6521 22.2887L10.5605 15.5744C10.556 15.5834 7.55147 13.5887 7.54695 13.5977C7.17995 14.1542 6.8345 14.721 6.50252 15.2983C6.49203 15.3161 5.38953 17.3871 5.38953 17.3871L12.7308 22.2861L20.6521 22.2887Z" fill="#D41800"/>
<path d="M45.5036 22.2864H53.8564L63.5933 15.7053C62.7546 14.4241 61.8272 13.2033 60.8179 12.0518L45.5036 22.2864Z" fill="#D41800"/>
<path d="M12.5098 45.4917L2.56836 52.1155C2.57255 52.1226 2.57712 52.1295 2.58202 52.1362C3.40536 53.3692 4.31098 54.5453 5.29271 55.6564C5.30171 55.6668 5.3114 55.6745 5.32054 55.6848L20.5028 45.4775L12.5098 45.4917Z" fill="#D41800"/>
<path d="M53.5789 45.5152L63.5204 52.139C63.5162 52.1461 63.5116 52.153 63.5067 52.1596C62.6834 53.3927 61.7778 54.5687 60.7961 55.6798C60.7871 55.6903 60.7774 55.698 60.7682 55.7083L45.586 45.501L53.5789 45.5152Z" fill="#D41800"/>
</svg>
