<svg width="275" height="265" viewBox="0 0 275 265" fill="none" xmlns="http://www.w3.org/2000/svg">
<path d="M35.6353 185.209H48.5316V171.606H35.6353V185.209ZM36.3094 172.281H47.8574V184.534H36.3094V172.281Z" fill="#7A899E" stroke="#7A899E" stroke-width="0.75" stroke-miterlimit="10"/>
<path d="M35.6353 216.765H48.5316V203.164H35.6353V216.765ZM36.3094 203.838H47.8574V216.091H36.3094V203.838Z" fill="#7A899E" stroke="#7A899E" stroke-width="0.75" stroke-miterlimit="10"/>
<path d="M64.5249 226.645H77.4169V203.164H64.5249V226.645ZM65.1991 203.838H76.7427V225.97H65.1991V203.838Z" fill="#7A899E" stroke="#7A899E" stroke-width="0.75" stroke-miterlimit="10"/>
<path d="M35.6353 250.214H48.5316V236.612H35.6353V250.214ZM36.3094 237.286H47.8574V249.54H36.3094V237.286Z" fill="#7A899E" stroke="#7A899E" stroke-width="0.75" stroke-miterlimit="10"/>
<path d="M64.5249 250.214H77.4169V236.612H64.5249V250.214ZM65.1991 237.286H76.7427V249.54H65.1991V237.286Z" fill="#7A899E" stroke="#7A899E" stroke-width="0.75" stroke-miterlimit="10"/>
<path d="M64.5249 185.209H77.4169V171.606H64.5249V185.209ZM65.1991 172.281H76.7427V184.534H65.1991V172.281Z" fill="#7A899E" stroke="#7A899E" stroke-width="0.75" stroke-miterlimit="10"/>
<path d="M59.8129 189.982C59.2125 189.168 58.357 188.578 57.3827 188.306C56.4084 188.035 55.3712 188.096 54.4362 188.482C53.5011 188.868 52.722 189.555 52.2228 190.435C51.7235 191.315 51.5328 192.336 51.681 193.337V200.501H60.6494L60.6451 193.399C60.7407 192.802 60.7163 192.193 60.5734 191.606C60.4305 191.02 60.1719 190.467 59.8129 189.982ZM59.9752 193.337V199.826H52.3552L52.3503 193.276C52.3644 192.477 52.6116 191.701 53.0615 191.041C53.5114 190.381 54.1444 189.868 54.8826 189.563C55.6207 189.259 56.4316 189.177 57.2157 189.328C57.9998 189.479 58.7227 189.855 59.2954 190.412C59.8965 191.26 60.1405 192.31 59.9752 193.337V193.337Z" fill="#7A899E" stroke="#7A899E" stroke-width="0.75" stroke-miterlimit="10"/>
<path d="M239.605 187.653H231.614V191.253C231.408 191.443 231.252 191.68 231.158 191.944C231.064 192.208 231.035 192.491 231.075 192.768C231.16 193.058 231.353 193.306 231.614 193.46V197.532C231.614 200.957 235.537 201.421 235.576 201.429H235.647C235.686 201.421 239.605 200.957 239.605 197.532V193.46C239.867 193.307 240.06 193.059 240.144 192.768C240.185 192.491 240.157 192.208 240.063 191.943C239.969 191.679 239.812 191.442 239.605 191.253L239.605 187.653ZM239.159 192.935L238.931 193.004V197.532C238.931 200.221 235.997 200.703 235.611 200.755C235.226 200.703 232.288 200.221 232.288 197.532V193.249L232.284 193.014L232.065 192.935C231.987 192.906 231.916 192.86 231.858 192.801C231.8 192.742 231.755 192.671 231.727 192.593C231.666 192.357 231.837 192.006 232.2 191.603L232.288 191.507V188.328H238.931V191.507L239.018 191.603C239.382 192.006 239.553 192.357 239.496 192.593C239.468 192.67 239.423 192.741 239.365 192.8C239.307 192.859 239.237 192.905 239.159 192.935V192.935Z" fill="#7A899E" stroke="#7A899E" stroke-width="0.75" stroke-miterlimit="10"/>
<path d="M1.38525 263.904H272.861V152.768H273.886V150.613H274V134.848L270.453 138.159V141.242H264.546V138.369L261.602 135.12L258.66 138.369V141.242H253.908V129.663H254.544L255.62 126.37H253.908V78.0324H254.544L255.62 74.7391H248.544V50.7848H249.87L250.724 47.4916H247.024V38.6105H248.259L244.629 33.5747C244.558 32.4797 243.653 23.5638 235.012 21.5844V20.0518H232.761V17.0737C233.307 16.8298 233.771 16.4328 234.097 15.9308C234.423 15.4287 234.596 14.8432 234.596 14.2448C234.596 13.6464 234.423 13.0608 234.097 12.5588C233.771 12.0568 233.307 11.6598 232.761 11.4158V7.07186C233.409 6.77972 233.937 6.27405 234.257 5.63936C234.577 5.00468 234.669 4.27943 234.518 3.58484C234.368 2.89025 233.983 2.26842 233.429 1.82325C232.875 1.37808 232.185 1.13656 231.474 1.13906C230.764 1.14156 230.075 1.38792 229.525 1.83698C228.974 2.28604 228.593 2.91057 228.448 3.60621C228.302 4.30184 228.399 5.02643 228.724 5.65885C229.048 6.29127 229.58 6.79319 230.23 7.08075V11.4069C229.68 11.6491 229.213 12.0459 228.885 12.549C228.557 13.0521 228.382 13.6397 228.382 14.2404C228.382 14.841 228.557 15.4286 228.885 15.9317C229.213 16.4348 229.68 16.8316 230.23 17.0738V20.0518H227.974V21.5845C219.329 23.5639 218.415 32.4887 218.349 33.5748L214.728 38.6106H215.953V47.4916H212.253L213.12 50.7849H214.433V74.7391H207.357L207.577 75.4136L208.216 77.3579L208.435 78.0324H209.078V126.37H207.357L208.435 129.663H209.078V135.715L209.617 135.12L209.752 135.269V129.663H217.74V141.242H212.564V138.369L209.617 135.12L206.67 138.369V141.242H200.771V138.159L200.662 138.054L197.22 134.848V143.37L183.911 134.515L161.213 149.624L161.126 149.676L136.532 166.037H123.25V129.663H149.407V157.41L150.082 156.963V129.663H158.069V151.691L158.744 151.253V129.663H159.387L160.464 126.37H158.744V78.0324H159.387L159.607 77.3579L160.246 75.4136L160.464 74.7391H153.388V50.7848H154.702L155.568 47.4916H151.868V38.6105H153.094L149.473 33.5747C149.407 32.4887 148.492 23.5638 139.847 21.5844V20.0518H137.591V17.0737C138.141 16.8317 138.609 16.4349 138.937 15.9318C139.265 15.4287 139.44 14.841 139.44 14.2403C139.44 13.6396 139.265 13.0519 138.937 12.5488C138.609 12.0457 138.141 11.6489 137.591 11.4069V7.08071C138.243 6.79311 138.776 6.29045 139.102 5.65679C139.428 5.02313 139.526 4.29689 139.38 3.59955C139.234 2.90221 138.853 2.27605 138.301 1.82579C137.749 1.37554 137.059 1.1285 136.347 1.126C135.635 1.12349 134.943 1.36566 134.388 1.81202C133.832 2.25837 133.447 2.88183 133.297 3.57813C133.146 4.27443 133.239 5.00135 133.56 5.63729C133.881 6.27323 134.411 6.77962 135.061 7.0718V11.4158C134.514 11.6599 134.051 12.0569 133.725 12.5589C133.4 13.0609 133.226 13.6464 133.226 14.2447C133.226 14.843 133.4 15.4285 133.725 15.9305C134.051 16.4325 134.514 16.8296 135.061 17.0737V20.0518H132.81V21.5845C124.17 23.5639 123.263 32.4798 123.193 33.5748L119.563 38.6106H120.797V47.4916H117.097L117.951 50.7849H119.278V74.7391H112.201L113.278 78.0324H113.913V126.37H112.201L113.278 129.663H113.913V166.037H113.305V181.102H100.351L100.251 181.215L95.1876 186.987H93.4188V152.768H94.4393V150.613H94.5536V134.848L91.1116 138.054L91.0016 138.159V141.242H85.1024V138.369L82.1554 135.12L79.208 138.369V141.242H72.1047V138.369L69.1622 135.12L66.2197 138.369V141.242H59.1084V138.369L56.1647 135.12L53.2222 138.369V141.242H46.1146V138.369L43.172 135.12L40.2245 138.369V141.242H33.1133V138.369L30.1696 135.12L27.2269 138.369V141.242H21.3191V138.159L17.7721 134.848V150.613H17.8856V152.768H18.9105V263.229H1.40723L1.38525 263.904ZM248.601 135.12L245.658 138.369V141.242H245.246V129.663H253.234V141.242H251.548V138.369L248.601 135.12ZM228.829 4.24282C228.823 3.77157 228.942 3.3072 229.175 2.89722C229.407 2.48724 229.744 2.14635 230.152 1.90943C230.559 1.67251 231.022 1.54806 231.493 1.54882C231.965 1.54957 232.427 1.6755 232.834 1.91372C233.241 2.15193 233.577 2.4939 233.808 2.90462C234.039 3.31534 234.157 3.78009 234.149 4.25132C234.142 4.72255 234.01 5.18334 233.766 5.58658C233.522 5.98982 233.175 6.32102 232.761 6.54631C232.618 6.62205 232.47 6.68917 232.319 6.74732C232.054 6.84774 231.774 6.90406 231.491 6.91404C231.212 6.90369 230.937 6.84736 230.677 6.74732C230.521 6.69771 230.371 6.63026 230.23 6.54631C229.81 6.32421 229.459 5.99291 229.212 5.58744C228.966 5.18196 228.833 4.71737 228.829 4.24282V4.24282ZM232.314 7.19428V11.2932C232.055 11.1834 231.777 11.1269 231.495 11.1269C231.214 11.1269 230.936 11.1834 230.677 11.2932V7.19432C230.936 7.30414 231.214 7.36072 231.495 7.36072C231.777 7.36072 232.055 7.30414 232.314 7.19432V7.19428ZM228.829 14.2448C228.834 13.7704 228.967 13.3062 229.213 12.9008C229.46 12.4955 229.811 12.164 230.23 11.9412C230.372 11.8607 230.522 11.7933 230.677 11.74C230.937 11.6401 231.212 11.5837 231.491 11.5732C231.773 11.5833 232.051 11.6396 232.314 11.74C232.469 11.7934 232.618 11.8608 232.761 11.9412C233.18 12.1615 233.531 12.4921 233.776 12.8973C234.02 13.3025 234.15 13.7669 234.15 14.2402C234.15 14.7136 234.02 15.178 233.776 15.5832C233.531 15.9884 233.18 16.319 232.761 16.5393C232.618 16.6197 232.469 16.6872 232.314 16.7409C232.054 16.8505 231.775 16.907 231.493 16.907C231.211 16.907 230.932 16.8505 230.672 16.7409C230.52 16.6895 230.371 16.6251 230.23 16.5483C229.81 16.3262 229.459 15.995 229.212 15.5895C228.965 15.184 228.833 14.7194 228.829 14.2448V14.2448ZM228.421 20.4981H230.677V17.1965C230.94 17.2844 231.214 17.3374 231.491 17.354C231.772 17.3392 232.049 17.2832 232.314 17.1876V20.4981H234.565V21.444C234.508 21.4353 234.473 21.4094 234.417 21.4005C234.355 21.3918 234.298 21.3739 234.237 21.3652C232.423 21.0384 230.564 21.0384 228.75 21.3652C228.684 21.3739 228.623 21.3918 228.562 21.4005C228.509 21.4094 228.475 21.4353 228.421 21.444V20.4981ZM219.01 33.8022L219.015 33.6972C219.028 33.2768 219.387 24.5798 227.383 22.329C230.078 21.6165 232.912 21.6165 235.607 22.329C243.609 24.5884 243.945 33.2768 243.959 33.6972L243.963 33.8022L246.945 37.9363H216.041L219.01 33.8022ZM216.628 40.2222V38.6544H246.349V40.2222H216.628ZM246.349 40.9403V47.4916H216.628V40.9403H246.349ZM213.638 50.1106L213.129 48.1661H249.857L249.354 50.1106H213.638ZM247.803 50.7848V74.7391H242.141V50.7848L247.803 50.7848ZM241.466 50.7848V74.7391H221.51V50.7848L241.466 50.7848ZM220.836 50.7848V74.7391H215.174V50.7848L220.836 50.7848ZM208.925 77.3578L208.285 75.4136H254.692L254.053 77.3578H208.925ZM253.234 78.0323V126.37H245.246V78.0324L253.234 78.0323ZM238.003 116.675V92.9041C238.003 91.1776 237.317 89.5217 236.096 88.3009C234.875 87.08 233.219 86.3942 231.493 86.3942C229.766 86.3942 228.11 87.08 226.89 88.3009C225.669 89.5217 224.983 91.1776 224.983 92.9041V116.675H224.944V126.37H218.415V78.0324H244.572V126.37H238.034V116.675L238.003 116.675ZM235.284 118.374V126.37H234.623V118.374H232.971V126.37H232.319V118.374H230.663V126.37H230.006V118.374H228.356V126.37H227.695V118.374H226.039V126.37H225.391V117.235H237.587V126.37H236.939V118.374L235.284 118.374ZM236.492 118.82V126.37H235.73V118.82H236.492ZM234.176 118.82V126.37H233.417V118.82H234.176ZM231.873 118.82V126.37H231.109V118.82H231.873ZM229.559 118.82V126.37H228.802V118.82H229.559ZM227.248 118.82V126.37H226.486V118.82H227.248ZM231.592 95.9345H231.39C231.3 95.9341 231.21 95.9517 231.126 95.9864C231.042 96.0211 230.966 96.0721 230.901 96.1365C230.837 96.201 230.787 96.2775 230.753 96.3616C230.719 96.4458 230.702 96.5359 230.703 96.6267V96.6792H225.658V92.904C225.66 91.3577 226.276 89.8754 227.37 88.7827C228.464 87.69 229.947 87.0763 231.493 87.0763C233.04 87.0763 234.523 87.69 235.617 88.7827C236.711 89.8754 237.327 91.3577 237.329 92.904V96.6792H232.275V96.6267C232.275 96.5363 232.258 96.4467 232.225 96.3629C232.191 96.2791 232.141 96.2029 232.077 96.1386C232.014 96.0742 231.938 96.0231 231.855 95.9881C231.771 95.9531 231.682 95.9349 231.592 95.9346V95.9345ZM235.415 105.271C235.61 105.444 235.767 105.656 235.875 105.893L236.102 106.69C234.594 106.932 233.067 107.049 231.539 107.04H231.443C229.915 107.049 228.388 106.932 226.88 106.69L227.111 105.91C227.207 105.662 227.364 105.443 227.568 105.271C227.633 105.21 229.354 103.572 229.13 99.7358C229.094 99.59 229.09 99.4382 229.116 99.2903C229.143 99.1425 229.2 99.0018 229.284 98.8774C229.496 98.6494 229.754 98.4691 230.041 98.3484C230.327 98.2276 230.637 98.1692 230.948 98.1769L231.15 98.1593V97.073H231.828V98.1593L232.03 98.1769C232.343 98.1684 232.653 98.2264 232.942 98.3471C233.23 98.4679 233.489 98.6487 233.703 98.8774C233.782 98.9959 233.836 99.1289 233.863 99.2687C233.89 99.4085 233.89 99.5523 233.861 99.6917C233.624 103.572 235.345 105.21 235.415 105.271V105.271ZM231.15 96.6792V96.6267C231.149 96.5946 231.154 96.5627 231.166 96.5328C231.178 96.5029 231.195 96.4757 231.218 96.4528C231.24 96.4299 231.267 96.4119 231.297 96.3996C231.327 96.3874 231.358 96.3812 231.391 96.3816H231.592C231.624 96.3817 231.655 96.3881 231.684 96.4006C231.713 96.4131 231.74 96.4313 231.762 96.4541C231.784 96.477 231.801 96.504 231.812 96.5337C231.824 96.5633 231.829 96.5949 231.828 96.6267V96.6792H231.15ZM230.703 97.073V97.7476C230.359 97.7594 230.023 97.8434 229.714 97.9944C229.405 98.1453 229.132 98.3596 228.912 98.6234C228.795 98.7957 228.715 98.9907 228.677 99.1957C228.639 99.4007 228.644 99.6114 228.692 99.8143C228.894 103.371 227.274 104.929 227.256 104.947C226.98 105.171 226.777 105.473 226.673 105.814L226.337 106.927L226.499 107.014C227.169 107.382 230.344 107.469 231.219 107.487L231.443 107.504L231.718 107.487C232.52 107.469 235.796 107.391 236.48 107.014L236.641 106.935L236.309 105.788C236.195 105.462 235.993 105.174 235.725 104.956C235.704 104.929 234.084 103.371 234.298 99.7618C234.34 99.5665 234.341 99.3648 234.301 99.1691C234.262 98.9734 234.183 98.7877 234.07 98.6234C233.849 98.3591 233.575 98.1445 233.266 97.9936C232.956 97.8427 232.619 97.7588 232.275 97.7476V97.073H237.329V116.561H225.658V97.0731L230.703 97.073ZM217.74 78.0323V126.37H209.752V78.0324L217.74 78.0323ZM208.925 128.989L208.285 127.044H254.692L254.053 128.989H208.925ZM218.415 129.663H244.572V141.242H238.551V138.369L235.607 135.12L232.665 138.369V141.242H225.825C225.711 140.961 225.621 140.671 225.553 140.375V138.369L225.286 138.071L225.452 138.255C225.608 136.889 226.221 135.616 227.193 134.643C228.165 133.671 229.438 133.056 230.804 132.899C232.17 132.743 233.549 133.054 234.715 133.782C235.882 134.509 236.768 135.611 237.228 136.907L238.187 137.966C237.953 136.392 237.172 134.95 235.982 133.894C234.791 132.837 233.266 132.233 231.675 132.188C230.084 132.144 228.528 132.66 227.28 133.648C226.031 134.635 225.17 136.031 224.848 137.59L222.61 135.12L219.667 138.369V141.242H218.415L218.415 129.663ZM197.894 136.39L200.097 138.448V141.917H207.344V138.623L209.617 136.118L211.89 138.623V141.917H220.342V138.623L222.61 136.118L224.878 138.623V141.917H233.339V138.623L235.607 136.118L237.876 138.623V141.917H246.332V138.623L248.601 136.118L250.873 138.623V141.917H259.334V138.623L261.602 136.118L263.871 138.623V141.917H271.127V138.448L273.326 136.399V149.939H197.894V136.39ZM161.45 150.272L183.911 135.321L197.22 144.185V147.592L183.911 138.737L162.444 153.022L142.869 166.037H137.745L161.45 150.272ZM133.672 4.24282C133.672 3.89302 133.74 3.54652 133.873 3.22315C134.007 2.89978 134.202 2.6059 134.45 2.35831C134.697 2.11072 134.99 1.9143 135.313 1.78028C135.636 1.64626 135.983 1.57727 136.333 1.57727C136.682 1.57727 137.029 1.64626 137.352 1.78028C137.675 1.9143 137.968 2.11072 138.216 2.35831C138.463 2.6059 138.659 2.89978 138.792 3.22315C138.925 3.54652 138.994 3.89302 138.993 4.24282C138.989 4.71745 138.856 5.18211 138.609 5.5876C138.363 5.9931 138.011 6.32435 137.591 6.54631C137.451 6.63027 137.301 6.69772 137.145 6.74732C136.885 6.84735 136.61 6.90368 136.331 6.91404C136.048 6.90412 135.768 6.8478 135.503 6.74732C135.352 6.68941 135.204 6.62228 135.061 6.54631C134.645 6.32134 134.296 5.98904 134.052 5.58396C133.808 5.17887 133.677 4.71578 133.672 4.24282V4.24282ZM137.145 7.19428V11.2932C136.882 11.2022 136.608 11.1463 136.331 11.1269C136.05 11.1459 135.773 11.2018 135.507 11.2932V7.19432C135.773 7.28575 136.05 7.3417 136.331 7.36072C136.608 7.34132 136.882 7.28538 137.145 7.19432V7.19428ZM133.672 14.2448C133.677 13.7718 133.808 13.3086 134.052 12.9035C134.296 12.4984 134.645 12.1661 135.061 11.9412C135.203 11.8608 135.353 11.7934 135.507 11.74C135.771 11.6398 136.049 11.5834 136.331 11.5732C136.61 11.5837 136.885 11.6401 137.145 11.74C137.3 11.7933 137.449 11.8607 137.591 11.9412C138.014 12.1598 138.368 12.4903 138.615 12.8965C138.862 13.3028 138.993 13.7692 138.993 14.2447C138.993 14.7203 138.862 15.1866 138.615 15.5929C138.368 15.9992 138.014 16.3297 137.591 16.5483C137.45 16.625 137.302 16.6894 137.15 16.7409C136.89 16.8505 136.611 16.907 136.329 16.907C136.046 16.907 135.767 16.8505 135.507 16.7409C135.353 16.6872 135.203 16.6197 135.061 16.5393C134.645 16.3163 134.297 15.9857 134.052 15.5821C133.808 15.1784 133.677 14.7166 133.672 14.2448V14.2448ZM133.257 20.4981H135.507V17.1876C135.772 17.2831 136.05 17.3392 136.331 17.354C136.608 17.3374 136.882 17.2845 137.145 17.1965V20.4981H139.4V21.444C139.348 21.4353 139.313 21.4094 139.26 21.4005C139.199 21.3918 139.138 21.3739 139.073 21.3652C137.258 21.0384 135.4 21.0384 133.585 21.3652C133.524 21.3739 133.467 21.3918 133.406 21.4005C133.348 21.4094 133.314 21.4353 133.257 21.444V20.4981ZM123.859 33.8022L123.864 33.6972C123.877 33.2768 124.214 24.5884 132.214 22.329C134.909 21.6165 137.743 21.6165 140.438 22.329C148.436 24.5798 148.794 33.2768 148.807 33.6972L148.812 33.8022L151.781 37.9363H120.876L123.859 33.8022ZM121.472 40.2222V38.6544H151.194V40.2222H121.472ZM151.194 40.9403V47.4916H121.472V40.9403H151.194ZM118.468 50.1106L117.964 48.1661H154.693L154.185 50.1106H118.468ZM152.648 50.7848V74.7391H146.985V50.7848L152.648 50.7848ZM146.311 50.7848V74.7391H126.355V50.7848L146.311 50.7848ZM125.681 50.7848V74.7391H120.018V50.7848L125.681 50.7848ZM113.769 77.3578L113.13 75.4136H159.536L158.897 77.3578H113.769ZM158.069 78.0323V126.37H150.082V78.0324L158.069 78.0323ZM142.838 116.675V92.9041C142.836 91.179 142.149 89.5254 140.929 88.3063C139.708 87.0873 138.054 86.4026 136.329 86.4026C134.604 86.4026 132.949 87.0873 131.729 88.3063C130.508 89.5254 129.821 91.179 129.819 92.9041V116.675H129.788V126.37H123.25V78.0324H149.407V126.37H142.878V116.675L142.838 116.675ZM140.128 118.374V126.37H139.466V118.374H137.815V126.37H137.159V118.374H135.503V126.37H134.851V118.374H133.199V126.37H132.539V118.374H130.883V126.37H130.235V117.235H142.431V126.37H141.782V118.374L140.128 118.374ZM141.336 118.82V126.37H140.574V118.82H141.336ZM139.02 118.82V126.37H138.262V118.82H139.02ZM136.712 118.82V126.37H135.95V118.82H136.712ZM134.404 118.82V126.37H133.646V118.82H134.404ZM132.092 118.82V126.37H131.33V118.82H132.092ZM136.432 95.9345H136.23C136.14 95.9349 136.05 95.9531 135.967 95.9882C135.884 96.0232 135.808 96.0744 135.745 96.1387C135.681 96.203 135.631 96.2792 135.597 96.363C135.564 96.4467 135.546 96.5363 135.547 96.6267V96.6792H130.493V92.904C130.495 91.3577 131.111 89.8754 132.205 88.7828C133.299 87.6901 134.782 87.0763 136.329 87.0763C137.875 87.0763 139.358 87.6901 140.452 88.7828C141.546 89.8754 142.162 91.3577 142.164 92.904V96.6792H137.119V96.6267C137.12 96.5359 137.103 96.4458 137.069 96.3617C137.035 96.2775 136.985 96.201 136.921 96.1366C136.857 96.0722 136.781 96.0211 136.697 95.9865C136.613 95.9518 136.523 95.9341 136.432 95.9346V95.9345ZM140.254 105.271C140.458 105.442 140.615 105.662 140.71 105.911L140.943 106.69C139.434 106.932 137.908 107.049 136.38 107.04H136.283C134.755 107.049 133.229 106.932 131.72 106.69L131.947 105.893C132.055 105.656 132.212 105.444 132.406 105.271C132.477 105.21 134.198 103.572 133.962 99.6918C133.933 99.5525 133.932 99.4087 133.959 99.2689C133.986 99.1291 134.04 98.9961 134.119 98.8775C134.332 98.6487 134.592 98.4679 134.88 98.3472C135.169 98.2264 135.48 98.1684 135.792 98.177L135.994 98.1595V97.0731H136.672V98.1595L136.874 98.177C137.185 98.1691 137.494 98.2275 137.781 98.3482C138.068 98.469 138.326 98.6494 138.538 98.8775C138.622 99.0019 138.679 99.1426 138.706 99.2905C138.732 99.4383 138.727 99.5901 138.691 99.736C138.468 103.572 140.188 105.21 140.254 105.271L140.254 105.271ZM135.994 96.6792V96.6267C135.993 96.5949 135.998 96.5633 136.009 96.5337C136.021 96.504 136.038 96.477 136.06 96.4541C136.082 96.4313 136.109 96.4131 136.138 96.4006C136.167 96.3881 136.198 96.3817 136.23 96.3816H136.432C136.464 96.3813 136.496 96.3874 136.525 96.3997C136.555 96.412 136.582 96.4302 136.604 96.453C136.627 96.4759 136.644 96.5031 136.656 96.5329C136.668 96.5628 136.673 96.5947 136.672 96.6267V96.6792H135.994ZM135.547 97.073V97.7476C135.203 97.7589 134.865 97.8428 134.556 97.9937C134.246 98.1446 133.972 98.3592 133.751 98.6234C133.638 98.7877 133.559 98.9734 133.52 99.1691C133.481 99.3649 133.482 99.5666 133.524 99.7618C133.739 103.371 132.118 104.929 132.096 104.956C131.828 105.174 131.627 105.462 131.514 105.788L131.181 106.935L131.343 107.014C132.026 107.391 135.301 107.469 136.103 107.487L136.38 107.504L136.602 107.487C137.478 107.469 140.654 107.382 141.323 107.014L141.485 106.927L141.148 105.814C141.139 105.744 141.069 105.455 140.566 104.947C140.548 104.929 138.928 103.371 139.129 99.8143C139.177 99.6115 139.183 99.4008 139.145 99.1958C139.108 98.9907 139.028 98.7958 138.91 98.6234C138.69 98.3597 138.417 98.1454 138.108 97.9945C137.8 97.8436 137.462 97.7594 137.119 97.7476V97.073H142.164V116.561H130.493V97.0731L135.547 97.073ZM122.576 78.0323V126.37H114.588V78.0324L122.576 78.0323ZM113.769 128.989L113.13 127.044H159.536L158.897 128.989H113.769ZM122.576 129.663V166.037H114.588V129.663L122.576 129.663ZM95.9803 187.11L100.658 181.776H190.878L195.555 187.11V189.772H193.839V186.987H190.405V189.772H188.684V186.987H185.251V189.772H183.534V186.987H180.105V189.772H178.38V186.987H174.96V189.772H173.235V186.987H169.801V189.772H168.084V186.987H164.66V189.772H162.93V186.987H159.506V189.772H157.784V186.987H154.355V189.772H152.63V186.987H149.206V189.772H147.48V186.987H144.056V189.772H142.33V186.987H138.905V189.772H137.181V186.987H133.751V189.772H132.031V186.987H128.606V189.772H126.876V186.987H123.451V189.772H121.735V186.987H118.301V189.772H116.576V186.987H113.156V189.772H111.431V186.987H108.002V189.772H106.285V186.987H102.851V189.772H101.131V186.987H97.6974V189.772H95.9805L95.9803 187.11ZM193.164 187.661V189.772H191.08V187.661H193.164ZM188.01 187.661V189.772H185.926V187.661H188.01ZM182.859 187.661V189.772H180.78V187.661H182.859ZM177.705 187.661V189.772H175.634V187.661H177.705ZM172.561 187.661V189.772H170.476V187.661H172.561ZM167.41 187.661V189.772H165.335V187.661H167.41ZM162.256 187.661V189.772H160.18V187.661H162.256ZM157.11 187.661V189.772H155.031V187.661H157.11ZM151.956 187.661V189.772H149.88V187.661H151.956ZM146.806 187.661V189.772H144.73V187.661H146.806ZM141.656 187.661V189.772H139.58V187.661H141.656ZM136.506 187.661V189.772H134.426V187.661H136.506ZM131.356 187.661V189.772H129.281V187.661H131.356ZM126.202 187.661V189.772H124.126V187.661H126.202ZM121.061 187.661V189.772H118.976V187.661H121.061ZM115.902 187.661V189.772H113.83V187.661H115.902ZM110.756 187.661V189.772H108.676V187.661H110.756ZM105.61 187.661V189.772H103.526V187.661H105.61ZM100.457 187.661V189.772H98.3717V187.661H100.457ZM95.3063 187.661V189.772H93.4189V187.661H95.3063ZM18.4464 136.399L20.645 138.448V141.917H27.9014V138.623L30.1697 136.118L32.438 138.623V141.917H40.8989V138.623L43.1721 136.118L45.4406 138.623V141.917H53.8965V138.623L56.1649 136.118L58.4332 138.623V141.917H66.894V138.623L69.1625 136.118L71.4308 138.623V141.917H79.8823V138.623L82.1556 136.118L84.4283 138.623V141.917H91.676V138.448L93.8795 136.39V149.939H18.4463L18.4464 136.399ZM18.3328 152.321V150.613H93.9924V152.321H90.3628V155.641H88.3129V152.321H84.8307V155.641H82.7816V152.321H79.3087V155.641H77.2552V152.321H73.7743V155.641H71.7245V152.321H68.2423V155.641H66.1975V152.321H62.7208V155.641H60.6667V152.321H57.1896V155.641H55.1404V152.321H51.6589V155.641H49.6141V152.321H46.1326V155.641H44.0784V152.321H40.6062V155.641H38.5514V152.321H35.0791V155.641H33.025V152.321H29.5479V155.641H27.4944V152.321H24.0172V155.641H21.963V152.321L18.3328 152.321ZM109.534 229.316V229.299H121.577V229.316H134.859V229.299H156.677V229.316H169.958V229.299H182.001V229.316H195.284V229.299H198.236V230.587H93.4188V229.299H96.2527V229.316H109.534ZM95.9639 210.224V209.111H109.823V210.224H109.088V228.625H107.722V210.906H98.0648V228.625H96.6992V210.224L95.9639 210.224ZM107.275 211.353V228.625H98.5118V211.353L107.275 211.353ZM121.288 210.224V209.111H135.149V210.224H134.413V228.625H133.046V210.906H123.39V228.625H122.024V210.224L121.288 210.224ZM132.599 211.353V228.625H123.837V211.353L132.599 211.353ZM156.388 210.224V209.111H170.248V210.224H169.512V228.625H168.146V210.906H158.49V228.625H157.123V210.224L156.388 210.224ZM167.699 211.353V228.625H158.936V211.353L167.699 211.353ZM181.712 210.224V209.111H195.573V210.224H194.837V228.625H193.471V210.906H183.815V228.625H182.448V210.224L181.712 210.224ZM193.024 211.353V228.625H184.262V211.353L193.024 211.353ZM92.7448 186.987H92.5521V263.229H19.585V152.768H21.5168V156.088H24.4636V152.768H27.0475V156.088H29.9949V152.768H32.5789V156.088H35.5262V152.768H38.1057V156.088H41.0526V152.768H43.6322V156.088H46.579V152.768H49.1671V156.088H52.1053V152.768H54.6941V156.088H57.6367V152.768H60.2205V156.088H63.1674V152.768H65.7512V156.088H68.6895V152.768H71.2776V156.088H74.2208V152.768H76.8088V156.088H79.7551V152.768H82.3359V156.088H85.2778V152.768H87.866V156.088H90.8091V152.768H92.7448V186.987ZM135.131 263.229H93.4189V256.056H135.131V263.229ZM153.125 263.229H138.411V236.743H153.125V263.229ZM155.73 263.229H153.8V236.069H137.737V263.229H135.805V236.069H134.802V234.072H156.734V236.069H155.73V263.229ZM198.31 263.229H156.405V256.056H198.31V263.229ZM198.31 255.382H156.405V236.743H157.408V233.398H134.128V236.744H135.131V255.382H93.4188V231.261H198.31V255.382ZM198.31 228.625H195.284V210.671H196.02V208.664H181.266V210.671H182.001V228.625H169.958V210.671H170.694V208.664H155.942V210.671H156.677V228.625H134.86V210.671H135.596V208.664H120.842V210.671H121.578V228.625H109.535V210.671H110.271V208.664H95.517V210.671H96.2531V228.625H93.4192V202.91H198.31L198.31 228.625ZM198.31 202.236H93.4189V199.52H198.31V202.236ZM198.31 198.846H93.4189V196.841H198.31V198.846ZM198.31 196.167H93.4189V190.447H198.31V196.167ZM198.31 189.772H196.229V187.661H198.31V189.772ZM198.354 186.987H196.348L191.285 181.215L191.185 181.102H113.979V168.98H198.354L198.354 186.987ZM198.354 168.305H113.979V166.711H198.354L198.354 168.305ZM198.354 166.037H144.082L162.676 153.67L183.912 139.543L197.22 148.397V150.613H197.333V152.768H198.354V166.037ZM272.187 263.229H199.028V152.768H200.964V156.088H203.906V152.768H206.495V156.088H209.438V152.768H212.016V156.088H214.964V152.768H217.552V156.088H220.495V152.768H223.083V156.088H226.021V152.768H228.605V156.088H231.553V152.768H234.136V156.088H237.079V152.768H239.667V156.088H242.606V152.768H245.194V156.088H248.141V152.768H250.72V156.088H253.668V152.768H256.247V156.088H259.195V152.768H261.778V156.088H264.725V152.768H267.309V156.088H270.257V152.768H272.187V263.229ZM273.439 152.321H269.81V155.641H267.756V152.321H264.278V155.641H262.224V152.321H258.748V155.641H256.693V152.321H253.221V155.641H251.167V152.321H247.694V155.641H245.641V152.321H242.159V155.641H240.114V152.321H236.632V155.641H234.583V152.321H231.106V155.641H229.052V152.321H225.575V155.641H223.53V152.321H220.048V155.641H217.999V152.321H214.518V155.641H212.464V152.321H208.991V155.641H206.941V152.321H203.46V155.641H201.411V152.321H197.78V150.613H273.439V152.321Z" fill="#7A899E" stroke="#7A899E" stroke-width="0.75" stroke-miterlimit="10"/>
<path d="M243.24 185.209H256.138V171.606H243.24V185.209ZM243.914 172.281H255.464V184.534H243.914V172.281Z" fill="#7A899E" stroke="#7A899E" stroke-width="0.75" stroke-miterlimit="10"/>
<path d="M243.24 216.765H256.138V203.164H243.24V216.765ZM243.914 203.838H255.464V216.091H243.914V203.838Z" fill="#7A899E" stroke="#7A899E" stroke-width="0.75" stroke-miterlimit="10"/>
<path d="M214.355 226.645H227.247V203.164H214.355V226.645ZM215.03 203.838H226.573V225.97H215.03V203.838Z" fill="#7A899E" stroke="#7A899E" stroke-width="0.75" stroke-miterlimit="10"/>
<path d="M243.24 250.214H256.138V236.612H243.24V250.214ZM243.914 237.286H255.464V249.54H243.914V237.286Z" fill="#7A899E" stroke="#7A899E" stroke-width="0.75" stroke-miterlimit="10"/>
<path d="M214.355 250.214H227.247V236.612H214.355V250.214ZM215.03 237.286H226.573V249.54H215.03V237.286Z" fill="#7A899E" stroke="#7A899E" stroke-width="0.75" stroke-miterlimit="10"/>
<path d="M214.355 185.209H227.247V171.606H214.355V185.209ZM215.03 172.281H226.573V184.534H215.03V172.281Z" fill="#7A899E" stroke="#7A899E" stroke-width="0.75" stroke-miterlimit="10"/>
<path d="M183.293 252.054H182.531V241H183.293V239.039H168.671V241H169.424V252.054H168.671V254.025H183.293V252.054ZM182.846 253.578H169.118V252.5H169.871V240.554H169.118V239.485H182.846V240.554H182.085V252.5H182.846V253.578Z" fill="#7A899E" stroke="#7A899E" stroke-width="0.75" stroke-miterlimit="10"/>
<path d="M170.813 252.15H181.157V240.903H170.813V252.15ZM171.259 241.35H180.71V251.703H171.259V241.35Z" fill="#7A899E" stroke="#7A899E" stroke-width="0.75" stroke-miterlimit="10"/>
<path d="M171.294 205.143H155.341V207.701H171.294V205.143ZM170.848 207.254H155.788V205.59H170.848V207.254Z" fill="#7A899E" stroke="#7A899E" stroke-width="0.75" stroke-miterlimit="10"/>
<path d="M196.62 205.143H180.666V207.701H196.62V205.143ZM196.173 207.254H181.113V205.59H196.173L196.173 207.254Z" fill="#7A899E" stroke="#7A899E" stroke-width="0.75" stroke-miterlimit="10"/>
<path d="M122.865 252.054H122.111V241H122.865V239.039H108.243V241H109.005V252.054H108.243V254.025H122.865V252.054ZM122.418 253.578H108.689V252.5H109.451V240.554H108.689V239.485H122.418V240.554H121.664V252.5H122.418V253.578Z" fill="#7A899E" stroke="#7A899E" stroke-width="0.75" stroke-miterlimit="10"/>
<path d="M110.379 252.15H120.723V240.903H110.379V252.15ZM110.826 241.35H120.276V251.703H110.826L110.826 241.35Z" fill="#7A899E" stroke="#7A899E" stroke-width="0.75" stroke-miterlimit="10"/>
<path d="M136.195 205.143H120.241V207.701H136.195V205.143ZM135.749 207.254H120.688V205.59H135.749V207.254Z" fill="#7A899E" stroke="#7A899E" stroke-width="0.75" stroke-miterlimit="10"/>
<path d="M110.87 205.143H94.9165V207.701H110.87V205.143ZM110.423 207.254H95.3629V205.59H110.423V207.254Z" fill="#7A899E" stroke="#7A899E" stroke-width="0.75" stroke-miterlimit="10"/>
<path d="M138.665 213.14C138.381 214.787 138.442 215.829 138.853 216.311C138.958 216.443 139.102 216.538 139.265 216.582V217.459C138.994 217.621 138.795 217.881 138.709 218.185C138.617 218.636 138.699 219.105 138.936 219.498V222.617H140.863C141.048 222.817 141.272 222.976 141.522 223.084C141.771 223.193 142.041 223.248 142.313 223.247C142.694 223.239 143.069 223.15 143.412 222.985C143.955 223.32 144.574 223.513 145.211 223.545C145.352 223.547 145.492 223.529 145.628 223.492C145.662 223.501 145.72 223.51 145.768 223.519C145.817 223.51 145.873 223.501 145.908 223.492C146.043 223.529 146.184 223.547 146.324 223.545C146.961 223.513 147.581 223.32 148.124 222.985C148.467 223.15 148.842 223.239 149.223 223.247C149.495 223.248 149.765 223.193 150.014 223.084C150.263 222.976 150.488 222.817 150.672 222.617H152.599V219.498C152.838 219.105 152.919 218.636 152.827 218.185C152.741 217.881 152.542 217.621 152.271 217.459V216.582C152.433 216.538 152.578 216.443 152.683 216.311C153.094 215.829 153.155 214.787 152.872 213.14L152.687 211.783C152.856 211.648 152.997 211.481 153.101 211.291C153.206 211.102 153.272 210.894 153.296 210.679C153.288 210.368 153.203 210.063 153.048 209.793C152.894 209.522 152.675 209.294 152.412 209.129C152.143 209.008 151.852 208.945 151.558 208.944C151.282 208.944 151.01 209.006 150.762 209.125C150.514 209.245 150.296 209.42 150.125 209.637C149.765 209.07 149.639 208.385 149.775 207.728C149.849 207.135 149.717 206.536 149.402 206.029C149.26 205.883 149.073 205.79 148.871 205.765C148.669 205.739 148.465 205.783 148.291 205.888C148.237 205.622 148.119 205.372 147.948 205.16C147.685 204.893 147.365 204.687 147.012 204.558C146.659 204.43 146.282 204.381 145.908 204.416C145.818 204.452 145.718 204.452 145.628 204.416C145.254 204.381 144.877 204.43 144.524 204.558C144.171 204.687 143.851 204.893 143.587 205.16C143.417 205.373 143.3 205.622 143.246 205.888C143.072 205.783 142.867 205.74 142.665 205.765C142.463 205.79 142.276 205.883 142.133 206.029C141.818 206.536 141.687 207.135 141.761 207.728C141.897 208.385 141.771 209.07 141.411 209.637C141.24 209.42 141.023 209.245 140.774 209.125C140.526 209.005 140.254 208.944 139.978 208.944C139.684 208.945 139.393 209.008 139.125 209.129C138.861 209.294 138.643 209.522 138.488 209.793C138.334 210.063 138.249 210.368 138.24 210.679C138.264 210.894 138.33 211.102 138.435 211.292C138.539 211.481 138.68 211.648 138.849 211.783L138.665 213.14ZM139.479 209.698C139.642 209.651 139.809 209.624 139.978 209.619C140.223 209.627 140.461 209.705 140.663 209.843C140.866 209.981 141.025 210.174 141.122 210.399L141.358 210.836L141.673 210.451C141.996 210.059 142.23 209.601 142.359 209.11C142.488 208.619 142.51 208.105 142.422 207.605C142.382 207.219 142.454 206.83 142.628 206.484C142.715 206.397 142.794 206.317 143.346 206.746L144.06 207.316L143.885 206.422C143.865 206.275 143.876 206.126 143.915 205.983C143.954 205.84 144.021 205.707 144.113 205.59C144.314 205.402 144.553 205.26 144.815 205.173C145.077 205.087 145.354 205.059 145.628 205.091C145.685 205.091 145.715 205.109 145.768 205.109C145.82 205.109 145.851 205.091 145.908 205.091C146.181 205.059 146.459 205.087 146.721 205.173C146.982 205.259 147.222 205.402 147.423 205.59C147.515 205.707 147.582 205.84 147.621 205.983C147.66 206.126 147.67 206.275 147.651 206.422L147.476 207.316L148.19 206.746C148.741 206.317 148.821 206.397 148.908 206.484C149.082 206.83 149.153 207.219 149.113 207.605C149.026 208.105 149.048 208.619 149.177 209.11C149.306 209.601 149.54 210.058 149.862 210.451L150.178 210.836L150.414 210.399C150.511 210.174 150.67 209.981 150.873 209.843C151.075 209.705 151.313 209.627 151.558 209.619C151.727 209.624 151.894 209.65 152.057 209.698C152.217 209.801 152.351 209.939 152.45 210.101C152.548 210.263 152.609 210.446 152.626 210.635C152.6 210.781 152.544 210.92 152.462 211.043C152.379 211.167 152.273 211.272 152.149 211.353L151.965 211.467L152.205 213.237C152.552 215.242 152.266 215.767 152.17 215.881C152.156 215.898 152.139 215.913 152.12 215.923C152.1 215.934 152.079 215.941 152.057 215.943L151.597 215.759V217.869L151.789 217.965C151.88 217.998 151.962 218.05 152.029 218.118C152.097 218.186 152.148 218.269 152.179 218.36C152.218 218.661 152.148 218.965 151.982 219.219L151.925 219.298V221.942H150.365L150.266 222.065C150.143 222.224 149.985 222.353 149.804 222.441C149.623 222.529 149.425 222.574 149.223 222.572C148.897 222.563 148.577 222.476 148.29 222.319L148.116 222.214L147.945 222.319C147.403 222.729 146.724 222.915 146.049 222.836L145.908 222.783L145.777 222.836H145.759L145.628 222.783L145.488 222.836C144.813 222.915 144.133 222.729 143.591 222.319L143.42 222.214L143.246 222.319C142.959 222.475 142.639 222.562 142.313 222.572C142.112 222.574 141.913 222.529 141.732 222.441C141.551 222.353 141.393 222.224 141.271 222.065L141.17 221.942H139.61V219.298L139.554 219.219C139.388 218.965 139.318 218.661 139.357 218.36C139.388 218.269 139.439 218.187 139.507 218.118C139.574 218.05 139.657 217.998 139.747 217.965L139.94 217.869V215.759L139.479 215.943C139.457 215.941 139.436 215.934 139.416 215.923C139.397 215.913 139.379 215.898 139.365 215.881C139.269 215.767 138.984 215.242 139.331 213.237L139.572 211.467L139.387 211.353C139.263 211.272 139.157 211.167 139.075 211.043C138.993 210.92 138.937 210.781 138.91 210.635C138.928 210.446 138.988 210.263 139.087 210.101C139.185 209.939 139.32 209.801 139.479 209.698V209.698Z" fill="#7A899E" stroke="#7A899E" stroke-width="0.75" stroke-miterlimit="10"/>
<path d="M129.534 138.982C129.535 140.325 129.934 141.638 130.681 142.754C131.428 143.87 132.489 144.74 133.729 145.253C134.97 145.767 136.336 145.901 137.653 145.639C138.97 145.377 140.18 144.73 141.129 143.78C142.079 142.83 142.725 141.621 142.988 140.304C143.25 138.986 143.116 137.621 142.602 136.38C142.089 135.139 141.219 134.079 140.103 133.332C138.986 132.585 137.674 132.186 136.331 132.186C135.438 132.185 134.554 132.361 133.729 132.702C132.905 133.043 132.155 133.544 131.524 134.175C130.893 134.807 130.392 135.556 130.051 136.381C129.709 137.206 129.534 138.09 129.534 138.982V138.982ZM142.444 138.982C142.443 140.192 142.083 141.375 141.41 142.38C140.737 143.386 139.781 144.169 138.663 144.631C137.545 145.093 136.314 145.213 135.128 144.976C133.941 144.739 132.852 144.156 131.997 143.3C131.142 142.443 130.56 141.353 130.325 140.166C130.09 138.979 130.212 137.749 130.676 136.632C131.14 135.514 131.925 134.56 132.931 133.888C133.938 133.217 135.121 132.859 136.331 132.86C137.134 132.86 137.93 133.019 138.672 133.327C139.414 133.635 140.088 134.086 140.656 134.655C141.223 135.223 141.673 135.898 141.98 136.641C142.287 137.383 142.444 138.179 142.444 138.982V138.982Z" fill="#7A899E" stroke="#7A899E" stroke-width="0.75" stroke-miterlimit="10"/>
<path d="M140.592 59.5786C140.539 58.4854 140.067 57.4545 139.275 56.6995C138.482 55.9445 137.43 55.5234 136.335 55.5234C135.241 55.5234 134.188 55.9445 133.396 56.6995C132.603 57.4545 132.132 58.4854 132.079 59.5786V73.5569H140.592V59.5786ZM139.918 72.8827H132.753V59.5786C132.806 58.6643 133.206 57.8049 133.872 57.1764C134.538 56.5478 135.419 56.1977 136.335 56.1977C137.251 56.1977 138.132 56.5478 138.798 57.1764C139.464 57.8049 139.865 58.6643 139.918 59.5786V72.8827Z" fill="#7A899E" stroke="#7A899E" stroke-width="0.75" stroke-miterlimit="10"/>
<path d="M235.744 59.5785C235.691 58.4853 235.219 57.4544 234.427 56.6995C233.634 55.9445 232.582 55.5234 231.487 55.5234C230.393 55.5234 229.34 55.9445 228.548 56.6995C227.755 57.4544 227.284 58.4853 227.23 59.5785V73.5568H235.744V59.5785ZM235.07 72.8826H227.905V59.5785C227.958 58.6642 228.358 57.8047 229.024 57.1761C229.69 56.5475 230.571 56.1973 231.487 56.1973C232.403 56.1973 233.284 56.5475 233.95 57.1761C234.616 57.8047 235.017 58.6642 235.07 59.5785V72.8826Z" fill="#7A899E" stroke="#7A899E" stroke-width="0.75" stroke-miterlimit="10"/>
</svg>
