<svg width="298" height="286" viewBox="0 0 298 286" fill="none" xmlns="http://www.w3.org/2000/svg">
<path d="M40.4827 220.739L40.475 220.419H40.4583C40.2813 217.258 38.8166 211.825 31.4166 208.737L31.2924 208.688L31.1689 208.737C23.7609 211.825 22.2963 217.258 22.1188 220.419L22.0942 260.078L20.2252 265.815H42.356L40.4827 260.078V220.739ZM22.7277 220.995L22.7355 220.748C22.8308 217.809 24.0689 212.434 31.2922 209.372C38.5069 212.434 39.7458 217.809 39.8405 220.748L39.8491 259.814H22.7277V220.995ZM41.4835 265.182H21.0975L22.6411 260.448H39.9358L41.4835 265.182Z" fill="#7A899E" stroke="#7A899E" stroke-width="0.75" stroke-miterlimit="10"/>
<path d="M29.8357 148.27C29.0827 148.269 28.3464 148.491 27.7198 148.909C27.0933 149.327 26.6048 149.921 26.3159 150.616C26.027 151.311 25.9508 152.077 26.0969 152.815C26.243 153.554 26.6048 154.233 27.1367 154.766C27.6686 155.299 28.3466 155.662 29.0849 155.81C29.8233 155.958 30.5889 155.883 31.2849 155.596C31.9809 155.308 32.576 154.821 32.995 154.195C33.414 153.57 33.638 152.834 33.6388 152.081C33.6378 151.072 33.2371 150.104 32.5243 149.39C31.8115 148.675 30.8448 148.273 29.8357 148.27V148.27ZM29.8357 155.464C29.1654 155.465 28.5099 155.267 27.9523 154.895C27.3946 154.523 26.9597 153.994 26.7029 153.375C26.446 152.756 26.3786 152.074 26.5091 151.417C26.6397 150.759 26.9624 150.155 27.4364 149.681C27.9104 149.207 28.5144 148.885 29.1719 148.754C29.8293 148.624 30.5107 148.691 31.1299 148.948C31.749 149.205 32.278 149.64 32.6499 150.197C33.0218 150.755 33.2199 151.41 33.2191 152.081C33.2182 152.978 32.8615 153.838 32.2272 154.472C31.5928 155.106 30.7327 155.463 29.8357 155.464V155.464Z" fill="#7A899E" stroke="#7A899E" stroke-width="0.75" stroke-miterlimit="10"/>
<path d="M15.7596 166.396C16.3576 166.395 16.9419 166.217 17.4387 165.884C17.9356 165.552 18.3227 165.079 18.5511 164.526C18.7796 163.974 18.8393 163.366 18.7224 162.78C18.6056 162.193 18.3175 161.655 17.8947 161.232C17.4718 160.809 16.9332 160.521 16.3468 160.404C15.7604 160.287 15.1524 160.347 14.5999 160.575C14.0473 160.804 13.5748 161.191 13.2421 161.688C12.9094 162.185 12.7315 162.769 12.7307 163.367C12.731 164.17 13.0502 164.94 13.6182 165.508C14.1861 166.076 14.9564 166.395 15.7596 166.396V166.396ZM15.7596 160.766C16.2749 160.766 16.7783 160.92 17.2063 161.207C17.6343 161.494 17.9677 161.901 18.1642 162.377C18.3607 162.854 18.4115 163.378 18.3102 163.883C18.2089 164.388 17.9601 164.852 17.5952 165.216C17.2303 165.579 16.7658 165.827 16.2603 165.927C15.7547 166.026 15.231 165.974 14.7552 165.776C14.2795 165.578 13.8731 165.244 13.5875 164.815C13.3019 164.386 13.15 163.882 13.1508 163.367C13.1525 162.676 13.4281 162.014 13.9172 161.527C14.4063 161.039 15.069 160.765 15.7596 160.766V160.766Z" fill="#7A899E" stroke="#7A899E" stroke-width="0.75" stroke-miterlimit="10"/>
<path d="M63.2722 119.492C63.2872 118.96 63.0907 118.444 62.7258 118.057C62.3608 117.669 61.8571 117.442 61.3252 117.426C61.2095 117.816 60.9708 118.158 60.6449 118.401C60.3189 118.645 59.9231 118.776 59.5163 118.776C59.1095 118.776 58.7136 118.645 58.3877 118.401C58.0617 118.158 57.823 117.816 57.7074 117.426C57.1761 117.443 56.6734 117.671 56.3093 118.058C55.9451 118.445 55.7491 118.961 55.7642 119.492V152.22H63.2722V119.492ZM59.383 151.94H56.0365V119.492C56.0204 119.262 56.0517 119.032 56.1285 118.815C56.2053 118.598 56.326 118.399 56.483 118.231C56.6399 118.063 56.8298 117.929 57.0409 117.837C57.2519 117.745 57.4795 117.698 57.7097 117.698C57.9398 117.698 58.1675 117.745 58.3785 117.837C58.5895 117.929 58.7795 118.063 58.9365 118.231C59.0934 118.399 59.214 118.598 59.2909 118.815C59.3677 119.032 59.3991 119.262 59.383 119.492V151.94ZM63 151.94H59.6543V119.492C59.6381 119.262 59.6693 119.032 59.7461 118.815C59.8228 118.598 59.9434 118.399 60.1003 118.231C60.2572 118.062 60.4471 117.928 60.6582 117.836C60.8692 117.744 61.0969 117.697 61.3271 117.697C61.5573 117.697 61.785 117.744 61.9961 117.836C62.2071 117.928 62.397 118.062 62.5539 118.231C62.7108 118.399 62.8314 118.598 62.9082 118.815C62.9849 119.032 63.0162 119.262 63 119.492V151.94Z" fill="#7A899E" stroke="#7A899E" stroke-width="0.75" stroke-miterlimit="10"/>
<path d="M48.2994 137.779C48.3146 137.247 48.1188 136.731 47.7547 136.343C47.3907 135.955 46.8879 135.727 46.3562 135.708C46.2424 136.1 46.0045 136.444 45.6783 136.689C45.3521 136.934 44.9553 137.066 44.5473 137.066C44.1394 137.066 43.7425 136.934 43.4162 136.689C43.09 136.444 42.8522 136.1 42.7384 135.708C42.2061 135.726 41.7026 135.953 41.3379 136.342C40.9732 136.73 40.777 137.246 40.7923 137.779V152.212H48.2994V137.779ZM44.4139 151.94H41.0637V137.779C41.0484 137.549 41.0803 137.319 41.1576 137.103C41.2348 136.886 41.3557 136.688 41.5128 136.52C41.6699 136.352 41.8596 136.218 42.0705 136.127C42.2814 136.035 42.509 135.988 42.7389 135.988C42.9688 135.988 43.1962 136.035 43.4071 136.127C43.618 136.218 43.8079 136.352 43.9649 136.52C44.122 136.688 44.2428 136.886 44.3201 137.103C44.3973 137.319 44.4293 137.549 44.4139 137.779V151.94ZM48.0272 151.94H44.6859V137.779C44.67 137.549 44.7013 137.319 44.7781 137.103C44.8548 136.887 44.9754 136.688 45.1321 136.52C45.2888 136.352 45.4783 136.218 45.6889 136.127C45.8996 136.035 46.1269 135.988 46.3566 135.988C46.5862 135.988 46.8135 136.035 47.0242 136.127C47.2348 136.218 47.4243 136.352 47.581 136.52C47.7377 136.688 47.8582 136.887 47.9349 137.103C48.0117 137.319 48.0431 137.549 48.0272 137.779V151.94Z" fill="#7A899E" stroke="#7A899E" stroke-width="0.75" stroke-miterlimit="10"/>
<path d="M111.71 260.078L111.685 220.419C111.508 217.258 110.043 211.825 102.634 208.737L102.512 208.688L102.388 208.737C94.9876 211.825 93.523 217.258 93.3464 220.419H93.3287L93.321 220.739V260.078L91.4487 265.815H113.578L111.71 260.078ZM93.9631 220.748C94.0575 217.809 95.2964 212.434 102.512 209.372C109.735 212.434 110.974 217.809 111.068 220.748L111.076 220.995V259.814H93.9551L93.9631 220.748ZM93.8685 260.448H111.163L112.706 265.182H92.3209L93.8685 260.448Z" fill="#7A899E" stroke="#7A899E" stroke-width="0.75" stroke-miterlimit="10"/>
<path d="M66.9022 221.628C64.6669 221.628 62.4818 222.291 60.6232 223.532C58.7646 224.774 57.316 226.539 56.4605 228.604C55.6051 230.67 55.3812 232.942 55.8172 235.134C56.2532 237.327 57.3296 239.34 58.9101 240.921C60.4906 242.502 62.5044 243.578 64.6967 244.014C66.889 244.45 69.1614 244.227 71.2265 243.371C73.2917 242.516 75.0569 241.067 76.2988 239.209C77.5407 237.35 78.2036 235.165 78.2037 232.93C78.1999 229.934 77.0081 227.061 74.8895 224.943C72.7709 222.824 69.8984 221.632 66.9022 221.628V221.628ZM74.2814 224.978C73.7903 224.749 73.2555 224.629 72.7134 224.625C72.3234 225.026 71.8109 225.287 71.2565 225.366C70.7022 225.445 70.1373 225.337 69.6507 225.06C69.1641 224.783 68.7832 224.353 68.5679 223.836C68.3527 223.319 68.3152 222.745 68.4614 222.204C70.6375 222.519 72.667 223.486 74.2814 224.978V224.978ZM70.1501 225.497C70.1342 225.611 70.1108 225.724 70.0799 225.835C69.6689 226.286 69.3761 226.832 69.2277 227.423C68.4915 227.114 67.7008 226.954 66.9022 226.954C66.1035 226.954 65.313 227.114 64.5767 227.423C64.4284 226.832 64.1356 226.286 63.7246 225.835C63.6937 225.724 63.6704 225.611 63.6546 225.497C63.6539 225.07 63.7372 224.647 63.9001 224.252C64.063 223.858 64.3022 223.499 64.6038 223.197C64.9055 222.895 65.2637 222.655 65.6581 222.491C66.0526 222.328 66.4753 222.243 66.9023 222.243C67.3293 222.243 67.752 222.328 68.1464 222.491C68.5408 222.655 68.8992 222.895 69.2009 223.197C69.5025 223.499 69.7416 223.858 69.9045 224.252C70.0674 224.647 70.1508 225.07 70.1501 225.497V225.497ZM72.4622 232.93C72.463 234.03 72.1375 235.105 71.5269 236.02C70.9164 236.935 70.0482 237.649 69.0322 238.07C68.0161 238.492 66.898 238.602 65.819 238.388C64.7401 238.174 63.7489 237.645 62.9709 236.867C62.1929 236.089 61.663 235.099 61.4482 234.02C61.2334 232.941 61.3433 231.823 61.7641 230.806C62.1849 229.79 62.8977 228.922 63.8123 228.31C64.7269 227.699 65.8022 227.373 66.9022 227.373C68.3756 227.375 69.7882 227.961 70.8304 229.003C71.8726 230.044 72.4594 231.457 72.4622 232.93V232.93ZM65.3422 222.204C65.4885 222.745 65.4511 223.319 65.2359 223.836C65.0207 224.352 64.6398 224.783 64.1533 225.06C63.6667 225.337 63.102 225.445 62.5477 225.366C61.9934 225.287 61.4809 225.026 61.0909 224.625C60.5488 224.628 60.014 224.749 59.5229 224.978C61.1372 223.486 63.1664 222.519 65.3422 222.204V222.204ZM58.5519 226.271C58.817 225.937 59.1452 225.659 59.518 225.452C59.8908 225.245 60.3008 225.114 60.7244 225.065C61.148 225.017 61.5769 225.053 61.9866 225.171C62.3963 225.289 62.7788 225.487 63.112 225.752C63.21 225.835 63.2555 225.941 63.3421 226.023C63.4349 226.635 63.6814 227.213 64.0585 227.704C63.3618 228.082 62.7476 228.596 62.2521 229.215C61.7567 229.834 61.3899 230.545 61.1732 231.308C60.703 231.064 60.1838 230.929 59.6544 230.913C59.531 230.913 59.4109 230.946 59.2884 230.955C59.2185 230.906 59.1363 230.888 59.0663 230.832C58.7331 230.566 58.4553 230.237 58.2491 229.864C58.0429 229.491 57.9121 229.081 57.8643 228.658C57.8166 228.234 57.8527 227.805 57.9706 227.396C58.0886 226.986 58.2862 226.604 58.5519 226.271V226.271ZM56.0197 232.93C56.03 231.004 56.559 229.116 57.551 227.464C57.445 227.87 57.4089 228.29 57.4443 228.708C57.5529 229.626 58.008 230.467 58.7165 231.061C57.8189 231.289 57.0424 231.852 56.5466 232.634C56.3349 232.987 56.186 233.374 56.1064 233.778C56.0819 233.498 56.0198 233.218 56.0198 232.93H56.0197ZM56.9008 232.856C57.1278 232.494 57.4237 232.181 57.7719 231.934C58.1201 231.686 58.5136 231.51 58.9299 231.416C59.0208 231.399 59.1153 231.399 59.2099 231.39C59.7528 231.735 60.3781 231.928 61.0209 231.95C60.9602 232.273 60.9271 232.601 60.9219 232.93C60.9243 234.178 61.3203 235.394 62.0535 236.404C61.5037 236.683 61.0333 237.096 60.6865 237.606C60.586 237.66 60.4818 237.707 60.3745 237.746C60.1373 237.802 59.8943 237.829 59.6506 237.828C58.9176 237.823 58.2075 237.572 57.6341 237.116C57.0607 236.659 56.6573 236.023 56.4887 235.309C56.392 234.893 56.3787 234.462 56.4494 234.041C56.5201 233.62 56.6736 233.217 56.9008 232.856V232.856ZM56.7565 236.782C57.0914 237.236 57.5274 237.605 58.0297 237.861C58.532 238.117 59.087 238.252 59.6507 238.256C59.8802 238.249 60.1086 238.221 60.3333 238.174C59.9561 239.015 59.912 239.968 60.2099 240.841C60.3611 241.261 60.5899 241.649 60.8845 241.985C59.0018 240.721 57.5592 238.903 56.7567 236.782H56.7565ZM62.2598 242.553C61.8764 242.368 61.5331 242.109 61.2499 241.791C60.9668 241.473 60.7491 241.102 60.6096 240.7C60.4661 240.299 60.4046 239.873 60.4287 239.447C60.4527 239.022 60.562 238.605 60.7497 238.223C60.8124 238.124 60.8823 238.031 60.9588 237.943C61.5331 237.714 62.0399 237.343 62.4321 236.865C62.9566 237.464 63.5965 237.951 64.3135 238.298C65.0306 238.644 65.8101 238.843 66.6055 238.881C66.4773 239.484 66.5041 240.11 66.6834 240.7C66.6625 240.815 66.6339 240.928 66.5977 241.038C66.2223 241.813 65.5549 242.408 64.7418 242.692C63.9286 242.976 63.036 242.926 62.2597 242.553H62.2598ZM66.9022 243.812C65.8252 243.798 64.7567 243.62 63.7331 243.285C64.3877 243.277 65.0278 243.091 65.5851 242.748C66.1425 242.404 66.5961 241.916 66.8978 241.335C66.8978 241.342 66.9022 241.342 66.9022 241.342C66.9022 241.342 66.9058 241.342 66.9058 241.335C67.2077 241.916 67.6615 242.404 68.2189 242.747C68.7764 243.091 69.4165 243.277 70.0711 243.285C69.0475 243.62 67.9791 243.798 66.9022 243.812V243.812ZM71.5445 242.553C70.7682 242.926 69.8758 242.976 69.0627 242.692C68.2496 242.408 67.5822 241.813 67.2069 241.038C67.1705 240.927 67.1415 240.815 67.1202 240.7C67.2999 240.11 67.3267 239.484 67.1979 238.881C67.9934 238.843 68.7729 238.644 69.4899 238.298C70.207 237.951 70.8468 237.464 71.3713 236.865C71.7639 237.342 72.2708 237.713 72.8449 237.943C72.9214 238.031 72.9914 238.124 73.0546 238.223C73.2421 238.605 73.3511 239.022 73.3752 239.447C73.3993 239.873 73.3379 240.299 73.1948 240.7C73.0551 241.102 72.8374 241.473 72.5543 241.791C72.2711 242.109 71.9279 242.368 71.5445 242.552V242.553ZM72.9191 241.985C73.2141 241.649 73.443 241.261 73.5938 240.841C73.8917 239.968 73.8478 239.015 73.4713 238.174C73.6958 238.221 73.9242 238.249 74.1536 238.256C74.7173 238.252 75.2722 238.116 75.7746 237.861C76.277 237.605 76.713 237.236 77.048 236.782C76.2453 238.903 74.8022 240.721 72.9191 241.985V241.985ZM77.3149 235.309C77.1464 236.023 76.7433 236.659 76.17 237.115C75.5967 237.572 74.8866 237.823 74.1536 237.828C73.9097 237.829 73.6666 237.802 73.4293 237.746C73.3219 237.707 73.2174 237.66 73.1168 237.606C72.7705 237.096 72.3003 236.682 71.7502 236.404C72.2225 235.774 72.5583 235.053 72.7363 234.286C72.9142 233.519 72.9303 232.723 72.7836 231.95C73.4265 231.928 74.0518 231.735 74.5947 231.39C74.6891 231.399 74.7838 231.399 74.8747 231.416C75.2909 231.51 75.6843 231.687 76.0323 231.934C76.3803 232.181 76.6761 232.494 76.9028 232.856C77.1295 233.218 77.2826 233.621 77.3533 234.042C77.4241 234.463 77.4109 234.893 77.3149 235.309V235.309ZM77.7845 232.93C77.7845 233.218 77.7225 233.498 77.6972 233.778C77.6177 233.374 77.4689 232.987 77.2571 232.634C76.7616 231.852 75.9854 231.289 75.0881 231.061C75.7963 230.467 76.2513 229.626 76.3603 228.708C76.3955 228.29 76.3595 227.87 76.2537 227.464C77.2455 229.116 77.7742 231.004 77.7845 232.93V232.93ZM75.9404 228.658C75.8953 229.082 75.7657 229.493 75.5593 229.866C75.3528 230.24 75.0736 230.568 74.7382 230.832C74.668 230.888 74.5858 230.906 74.5158 230.955C74.3924 230.946 74.2736 230.913 74.1502 230.913C73.6206 230.929 73.1015 231.064 72.6312 231.308C72.4144 230.545 72.0474 229.834 71.5519 229.215C71.0565 228.596 70.4425 228.082 69.7458 227.704C70.1225 227.213 70.3689 226.635 70.4622 226.023C70.5491 225.941 70.5946 225.835 70.6923 225.752C71.1948 225.353 71.8042 225.112 72.4438 225.059C73.0834 225.005 73.7244 225.143 74.2858 225.454C74.8473 225.765 75.3041 226.235 75.5986 226.805C75.893 227.375 76.012 228.02 75.9404 228.658V228.658Z" fill="#7A899E" stroke="#7A899E" stroke-width="0.75" stroke-miterlimit="10"/>
<path d="M67.079 248.094H67.1776C67.3027 248.093 67.4223 248.043 67.5105 247.954C67.5986 247.865 67.6482 247.745 67.6482 247.62C67.6482 247.495 67.5986 247.375 67.5105 247.286C67.4223 247.198 67.3027 247.147 67.1776 247.146H66.6255C66.5006 247.148 66.3813 247.198 66.2935 247.287C66.2056 247.375 66.1562 247.495 66.1562 247.62C66.1562 247.745 66.2056 247.865 66.2935 247.953C66.3813 248.042 66.5006 248.092 66.6255 248.094H66.7255V249.847L64.3665 256.357H65.3378V265.708H68.4666V256.357H69.4376L67.079 249.847V248.094ZM68.8356 255.938H68.0465V265.288H65.7578V255.938H64.9675L66.9021 250.595L68.8356 255.938Z" fill="#7A899E" stroke="#7A899E" stroke-width="0.75" stroke-miterlimit="10"/>
<path d="M103.968 148.27C103.215 148.27 102.479 148.493 101.853 148.911C101.227 149.329 100.739 149.924 100.451 150.619C100.163 151.315 100.087 152.08 100.234 152.818C100.381 153.557 100.743 154.235 101.275 154.768C101.807 155.3 102.485 155.663 103.223 155.81C103.962 155.958 104.727 155.883 105.423 155.595C106.118 155.308 106.713 154.82 107.132 154.195C107.551 153.569 107.775 152.833 107.775 152.081C107.775 151.071 107.374 150.102 106.66 149.387C105.946 148.673 104.978 148.271 103.968 148.27V148.27ZM103.968 155.464C103.297 155.464 102.642 155.265 102.085 154.893C101.528 154.52 101.094 153.991 100.838 153.372C100.582 152.753 100.515 152.071 100.646 151.414C100.777 150.757 101.1 150.153 101.574 149.68C102.048 149.206 102.652 148.884 103.31 148.754C103.967 148.624 104.648 148.691 105.267 148.948C105.886 149.205 106.415 149.64 106.786 150.198C107.158 150.755 107.356 151.411 107.355 152.081C107.355 152.525 107.267 152.965 107.097 153.376C106.926 153.787 106.677 154.16 106.362 154.474C106.048 154.788 105.674 155.037 105.263 155.207C104.853 155.377 104.412 155.464 103.968 155.464V155.464Z" fill="#7A899E" stroke="#7A899E" stroke-width="0.75" stroke-miterlimit="10"/>
<path d="M118.044 166.396C118.642 166.396 119.227 166.219 119.724 165.886C120.221 165.554 120.609 165.082 120.838 164.53C121.068 163.977 121.128 163.369 121.011 162.782C120.895 162.196 120.607 161.657 120.185 161.233C119.762 160.81 119.223 160.522 118.637 160.404C118.05 160.287 117.442 160.346 116.889 160.575C116.336 160.803 115.864 161.19 115.531 161.687C115.198 162.184 115.02 162.769 115.019 163.367C115.02 164.169 115.338 164.939 115.905 165.506C116.472 166.074 117.241 166.394 118.044 166.396V166.396ZM118.044 160.766C118.559 160.766 119.063 160.919 119.491 161.205C119.92 161.492 120.254 161.899 120.451 162.375C120.648 162.851 120.699 163.375 120.598 163.881C120.497 164.386 120.249 164.85 119.884 165.214C119.519 165.579 119.055 165.826 118.549 165.926C118.043 166.026 117.52 165.974 117.044 165.776C116.568 165.579 116.161 165.244 115.875 164.815C115.589 164.386 115.437 163.882 115.438 163.367C115.441 162.677 115.716 162.016 116.205 161.529C116.693 161.042 117.354 160.767 118.044 160.766V160.766Z" fill="#7A899E" stroke="#7A899E" stroke-width="0.75" stroke-miterlimit="10"/>
<path d="M76.0958 117.426C75.9802 117.816 75.7416 118.158 75.4157 118.401C75.0898 118.645 74.694 118.776 74.2873 118.776C73.8806 118.776 73.4848 118.645 73.1589 118.401C72.833 118.158 72.5944 117.816 72.4788 117.426C71.947 117.442 71.4433 117.669 71.0784 118.057C70.7135 118.444 70.5172 118.96 70.5323 119.492V152.22H78.0393V119.492C78.0545 118.961 77.8586 118.445 77.4943 118.058C77.1301 117.67 76.6272 117.443 76.0958 117.426ZM74.1501 151.94H70.8042V119.492C70.7881 119.263 70.8194 119.032 70.8962 118.815C70.973 118.598 71.0935 118.399 71.2504 118.231C71.4074 118.063 71.5973 117.929 71.8083 117.837C72.0193 117.745 72.247 117.698 72.4771 117.698C72.7073 117.698 72.9349 117.745 73.146 117.837C73.357 117.929 73.5469 118.063 73.7038 118.231C73.8607 118.399 73.9814 118.598 74.0582 118.815C74.135 119.032 74.1662 119.263 74.1501 119.492V151.94ZM77.767 151.94H74.4215V119.492C74.4053 119.263 74.4366 119.032 74.5134 118.815C74.5901 118.598 74.7107 118.399 74.8676 118.231C75.0245 118.063 75.2145 117.929 75.4255 117.837C75.6365 117.745 75.8641 117.698 76.0942 117.698C76.3243 117.698 76.552 117.745 76.763 117.837C76.974 117.929 77.164 118.063 77.3209 118.231C77.4778 118.399 77.5984 118.598 77.6751 118.815C77.7519 119.032 77.7832 119.263 77.767 119.492V151.94Z" fill="#7A899E" stroke="#7A899E" stroke-width="0.75" stroke-miterlimit="10"/>
<path d="M91.066 135.708C90.9521 136.1 90.7142 136.444 90.3879 136.689C90.0616 136.934 89.6647 137.066 89.2567 137.066C88.8487 137.066 88.4517 136.934 88.1255 136.689C87.7992 136.444 87.5611 136.1 87.4472 135.708C86.9156 135.727 86.4131 135.955 86.0492 136.343C85.6852 136.731 85.4895 137.247 85.5047 137.779V152.212H93.0117V137.779C93.027 137.246 92.8309 136.73 92.4663 136.342C92.1017 135.954 91.5982 135.726 91.066 135.708V135.708ZM89.1183 151.94H85.776V137.779C85.7601 137.549 85.7916 137.319 85.8684 137.103C85.9452 136.886 86.0658 136.688 86.2225 136.52C86.3792 136.352 86.5688 136.218 86.7795 136.127C86.9902 136.035 87.2174 135.988 87.4471 135.988C87.6768 135.988 87.904 136.035 88.1147 136.127C88.3254 136.218 88.515 136.352 88.6717 136.52C88.8285 136.688 88.949 136.886 89.0259 137.103C89.1027 137.319 89.1341 137.549 89.1183 137.779V151.94ZM92.7405 151.94H89.3905V137.779C89.3751 137.549 89.407 137.319 89.4842 137.103C89.5615 136.886 89.6824 136.688 89.8395 136.52C89.9965 136.352 90.1863 136.218 90.3972 136.127C90.6081 136.035 90.8355 135.988 91.0654 135.988C91.2953 135.988 91.5227 136.035 91.7336 136.127C91.9445 136.218 92.1344 136.352 92.2915 136.52C92.4485 136.688 92.5693 136.886 92.6466 137.103C92.7238 137.319 92.7558 137.549 92.7405 137.779V151.94Z" fill="#7A899E" stroke="#7A899E" stroke-width="0.75" stroke-miterlimit="10"/>
<path d="M226.078 165.786V189.27H128.202L128.515 189.905H226.078V254.11H216.908V211.001H185.262V203.462H178.426V196.284H170.137V203.462H163.301V211.001H131.21V207.339H135.417V195.18H131.133L131.14 195.535H130.86L127 186.85V165.786H226.078ZM207.747 218.097V235.152H216.274V237.589H207.742V254.11H204.034V237.589H195.189V254.11H178.686V237.589H169.845V254.11H153.357V237.589H144.516V254.11H140.804V237.589H131.964V254.11H131.21V211.635H163.301V215.348H185.262V211.635H216.274V218.097H207.747ZM216.171 218.517V234.733H208.166V218.517H216.171ZM216.163 238.009V254.11H208.162V238.009H216.163ZM203.614 238.009V254.11H195.609V238.009H203.614ZM178.265 238.009V254.11H170.265V238.009H178.265ZM152.938 238.009V254.11H144.936V238.009H152.938ZM140.384 238.009V254.11H132.384V238.009H140.384ZM184.842 203.881V214.928H163.72V203.881H184.842ZM170.557 203.462V196.704H178.007V203.462H170.557ZM131.21 206.919V195.6H134.996V206.919L131.21 206.919ZM131.21 274.976V267.099C137.582 262.669 145.084 260.145 152.838 259.822V278.927H133.136V274.976L131.21 274.976ZM126.448 232.436V206.375H130.576V274.976H126.448V233.564L126.847 233.967L126.448 232.436ZM126.448 205.742V203.528L126.637 203.725L126.445 202.967L124.671 196.168H130.576V205.742L126.448 205.742ZM116.163 203.528V205.742H17.641V203.528L17.8306 203.716L17.641 202.992V202.861C17.6243 202.878 17.6285 202.869 17.6118 202.885V202.878L17.5386 202.605L15.863 196.168H117.941L116.266 202.605L116.192 202.878V202.885C116.176 202.869 116.18 202.878 116.163 202.861V202.992L115.974 203.716L116.163 203.528ZM7.776 250.743V233.202C8.43342 232.787 9.20067 232.581 9.97742 232.609C10.7571 232.579 11.5273 232.789 12.1838 233.211V250.743H7.776ZM12.1838 251.163V274.976H7.776V251.163H12.1838ZM9.97742 232.157C9.21127 232.137 8.45307 232.316 7.776 232.675V232.626L9.54932 225.826H10.4095L12.1838 232.634V232.675C11.5044 232.317 10.745 232.139 9.97742 232.157V232.157ZM10.7631 225.382H9.19507L7.776 230.823V203.124C7.81768 203.087 7.86278 203.054 7.91077 203.025C8.53604 202.654 9.25001 202.458 9.97742 202.458C10.7048 202.458 11.4188 202.654 12.0441 203.025C12.1297 203.083 12.1507 203.1 12.1838 203.124V230.823L10.7631 225.382ZM7.91602 202.523L9.5741 196.168H10.3851L12.0441 202.523C11.4029 202.204 10.6964 202.037 9.9801 202.037C9.26379 202.037 8.55717 202.204 7.91602 202.523V202.523ZM10.825 196.168H14.1719L12.4962 202.589L10.825 196.168ZM14.6117 196.168H15.4229L17.0807 202.523C16.4395 202.204 15.733 202.037 15.0167 202.037C14.3004 202.037 13.5939 202.204 12.9528 202.523L14.6117 196.168ZM12.813 251.163H17.2208V274.976H12.813V251.163ZM12.813 250.743V233.202C13.4707 232.787 14.2382 232.581 15.0151 232.609C15.7946 232.579 16.5645 232.789 17.2208 233.211V250.743H12.813ZM15.0151 232.157C14.2488 232.138 13.4904 232.316 12.813 232.675V232.626L14.5863 225.826H15.4471L17.2208 232.634V232.675C16.5416 232.317 15.7824 232.139 15.015 232.157H15.0151ZM15.8008 225.382H14.2328L12.813 230.823V203.124C12.8551 203.087 12.9004 203.054 12.9485 203.025C13.5736 202.654 14.2873 202.458 15.0145 202.458C15.7418 202.458 16.4556 202.654 17.0807 203.025C17.1673 203.083 17.1884 203.1 17.2208 203.124V230.823L15.8008 225.382ZM118.381 196.168H119.193L120.85 202.523C120.209 202.204 119.503 202.037 118.786 202.037C118.07 202.037 117.364 202.204 116.723 202.523L118.381 196.168ZM116.583 251.163H120.991V274.976H116.583V251.163ZM116.583 250.743V233.211C117.239 232.789 118.009 232.579 118.789 232.609C119.566 232.581 120.333 232.787 120.991 233.202V250.743H116.583ZM118.789 232.157C118.022 232.139 117.262 232.317 116.583 232.675V232.634L118.357 225.826H119.217L120.991 232.626V232.675C120.313 232.316 119.555 232.138 118.789 232.157V232.157ZM119.571 225.382H118.003L116.583 230.823V203.124C116.616 203.1 116.637 203.083 116.723 203.025C117.348 202.654 118.062 202.458 118.789 202.458C119.516 202.458 120.23 202.654 120.856 203.025C120.904 203.054 120.949 203.087 120.991 203.124V230.823L119.571 225.382ZM119.633 196.168H122.978L121.307 202.589L119.633 196.168ZM123.419 196.168H124.229L125.888 202.523C125.247 202.204 124.541 202.037 123.824 202.037C123.108 202.037 122.402 202.204 121.76 202.523L123.419 196.168ZM121.62 251.163H126.028V274.976H121.62V251.163ZM121.62 250.743V233.211C122.277 232.789 123.047 232.579 123.827 232.609C124.604 232.581 125.371 232.787 126.028 233.202V250.743H121.62ZM123.827 232.157C123.059 232.139 122.3 232.317 121.62 232.675V232.634L123.395 225.826H124.255L126.028 232.626V232.675C125.351 232.316 124.593 232.138 123.827 232.157V232.157ZM124.609 225.382H123.041L121.62 230.823V203.124C121.654 203.1 121.675 203.083 121.76 203.025C122.386 202.654 123.099 202.458 123.827 202.458C124.554 202.458 125.268 202.654 125.893 203.025C125.941 203.054 125.986 203.087 126.028 203.124V230.823L124.609 225.382ZM121.703 154.846L124.419 146.779L127.132 154.846H121.703ZM126.579 155.266V186.843H122.254V155.266H126.579ZM121.835 159.028V186.843H120.896V170.412C120.896 169.277 120.226 168.346 119.402 168.346C119.368 168.683 119.211 168.994 118.96 169.221C118.71 169.448 118.384 169.573 118.046 169.573C117.708 169.573 117.382 169.448 117.132 169.221C116.881 168.994 116.724 168.683 116.69 168.346C115.867 168.346 115.2 169.277 115.2 170.412V186.843H113.986V159.028L121.835 159.028ZM120.625 170.412V186.843H118.18V170.412C118.18 169.424 118.728 168.618 119.402 168.618C120.077 168.618 120.625 169.424 120.625 170.412L120.625 170.412ZM117.908 170.412V186.843H115.471V170.412C115.471 169.424 116.019 168.618 116.69 168.618C117.361 168.618 117.908 169.424 117.908 170.412V170.412ZM108.693 137.075L111.406 129.012L114.117 137.075H108.693ZM113.566 137.494V186.843H109.245V137.494L113.566 137.494ZM108.826 142.286V147.059H99.1155V142.286L108.826 142.286ZM105.779 158.748C105.665 159.14 105.427 159.484 105.101 159.729C104.775 159.974 104.378 160.106 103.97 160.106C103.563 160.106 103.166 159.974 102.84 159.729C102.514 159.484 102.276 159.14 102.162 158.748C101.629 158.766 101.125 158.995 100.76 159.383C100.395 159.772 100.199 160.29 100.214 160.823V186.843H99.1155V147.694H108.825V186.843H107.721V160.823C107.738 160.291 107.542 159.773 107.178 159.385C106.814 158.996 106.311 158.767 105.779 158.748V158.748ZM107.45 160.823V186.843H104.104V160.823C104.088 160.594 104.119 160.363 104.196 160.146C104.273 159.929 104.393 159.73 104.55 159.562C104.707 159.394 104.897 159.259 105.108 159.168C105.319 159.076 105.547 159.028 105.777 159.028C106.007 159.028 106.235 159.076 106.446 159.168C106.657 159.259 106.847 159.394 107.004 159.562C107.161 159.73 107.281 159.929 107.358 160.146C107.435 160.363 107.466 160.594 107.45 160.823V160.823ZM103.833 160.823V186.843H100.486V160.823C100.47 160.593 100.502 160.363 100.578 160.146C100.655 159.929 100.776 159.73 100.933 159.562C101.09 159.394 101.28 159.259 101.491 159.168C101.702 159.076 101.93 159.028 102.16 159.028C102.39 159.028 102.618 159.076 102.829 159.168C103.04 159.259 103.23 159.394 103.387 159.562C103.544 159.73 103.664 159.929 103.741 160.146C103.818 160.363 103.849 160.593 103.833 160.823V160.823ZM93.823 112.941L96.5355 104.874L99.2477 112.941H93.823ZM98.6956 113.36V186.843H94.3699V113.36H98.6956ZM93.9508 119.641V124.394H84.3571V119.641H93.9508ZM91.2798 158.748C91.1659 159.14 90.928 159.484 90.6018 159.729C90.2756 159.974 89.8787 160.106 89.4708 160.106C89.0629 160.106 88.666 159.974 88.3398 159.729C88.0136 159.484 87.7757 159.14 87.6619 158.748C87.1289 158.766 86.6248 158.995 86.2599 159.384C85.895 159.772 85.6991 160.29 85.715 160.823V186.843H84.3571V125.028H93.9508V186.843H93.2219V160.823C93.2382 160.291 93.0431 159.774 92.6791 159.385C92.3151 158.996 91.8119 158.767 91.2797 158.748L91.2798 158.748ZM92.9508 160.823V186.843H89.605V160.823C89.5888 160.594 89.6202 160.363 89.6969 160.146C89.7736 159.929 89.8942 159.73 90.0511 159.562C90.2081 159.394 90.3978 159.259 90.6089 159.168C90.8199 159.076 91.0477 159.028 91.2778 159.028C91.508 159.028 91.7356 159.076 91.9467 159.168C92.1577 159.259 92.3476 159.394 92.5045 159.562C92.6614 159.73 92.782 159.929 92.8588 160.146C92.9355 160.363 92.9667 160.594 92.9506 160.823L92.9508 160.823ZM89.3329 160.823V186.843H85.9863V160.823C85.9702 160.593 86.0016 160.363 86.0784 160.146C86.1552 159.929 86.2758 159.73 86.4327 159.562C86.5897 159.394 86.7797 159.259 86.9907 159.167C87.2018 159.076 87.4295 159.028 87.6597 159.028C87.8898 159.028 88.1175 159.076 88.3286 159.167C88.5397 159.259 88.7295 159.394 88.8865 159.562C89.0434 159.73 89.164 159.929 89.2408 160.146C89.3176 160.363 89.349 160.593 89.3329 160.823V160.823ZM81.7727 83.3976L84.4849 91.4644H79.0603L81.7727 83.3976ZM83.9374 91.8842V186.843H79.6115V91.8842H83.9374ZM79.1917 91.8842V98.5146H78.5702V91.8842H79.1917ZM76.1171 158.748C76.0033 159.14 75.7655 159.484 75.4393 159.729C75.1132 159.974 74.7164 160.106 74.3086 160.106C73.9008 160.106 73.5039 159.974 73.1777 159.729C72.8516 159.484 72.6137 159.14 72.5 158.748C71.9676 158.767 71.4643 158.996 71.1001 159.385C70.7359 159.773 70.5406 160.291 70.5569 160.823V186.843H69.4832V104.026H79.1917V186.843H78.0596V160.823C78.0759 160.291 77.8807 159.773 77.5166 159.385C77.1525 158.996 76.6493 158.767 76.1169 158.748L76.1171 158.748ZM77.7882 160.823V186.843H74.4424V160.823C74.4263 160.594 74.4575 160.363 74.5343 160.146C74.6111 159.929 74.7316 159.73 74.8885 159.562C75.0455 159.394 75.2354 159.259 75.4464 159.168C75.6575 159.076 75.8851 159.028 76.1152 159.028C76.3454 159.028 76.5731 159.076 76.7842 159.168C76.9952 159.259 77.1851 159.394 77.342 159.562C77.499 159.73 77.6195 159.929 77.6963 160.146C77.7731 160.363 77.8043 160.594 77.7882 160.823V160.823ZM74.1704 160.823V186.843H70.829V160.823C70.8125 160.594 70.8435 160.363 70.92 160.146C70.9965 159.929 71.1169 159.73 71.2737 159.562C71.4304 159.394 71.6201 159.259 71.8311 159.168C72.042 159.076 72.2696 159.028 72.4996 159.028C72.7297 159.028 72.9573 159.076 73.1682 159.168C73.3791 159.259 73.569 159.394 73.7257 159.562C73.8825 159.73 74.0027 159.929 74.0792 160.146C74.1557 160.363 74.1867 160.594 74.1703 160.823L74.1704 160.823ZM64.1901 91.4644L66.9022 83.3976L69.6147 91.4644H64.1901ZM69.0635 91.8842V186.843H64.7413V91.8842H69.0635ZM70.108 91.6083L66.9022 82.0808L63.6967 91.6083L63.6055 91.8842H64.3212V98.5146H55.8677V75.9401H77.937V98.5146H69.4833V91.8842H70.1991L70.108 91.6083ZM69.4833 103.392V99.1484H79.1917V103.392L69.4833 103.392ZM54.8475 75.306C54.6987 73.6928 54.2131 65.4119 59.4856 61.1646L59.5842 61.0901L66.9022 10.6188L74.2203 61.0901L74.3184 61.1646C79.5908 65.4119 79.1061 73.6928 78.9574 75.306H54.8475ZM64.3212 99.1484V103.392H54.613V99.1484H64.3212ZM61.3043 158.748C61.1906 159.14 60.9528 159.484 60.6267 159.729C60.3006 159.974 59.9038 160.106 59.496 160.106C59.0881 160.106 58.6914 159.974 58.3652 159.729C58.0391 159.484 57.8013 159.14 57.6875 158.748C57.1551 158.767 56.6518 158.996 56.2876 159.385C55.9234 159.773 55.728 160.291 55.7443 160.823V186.843H54.613V104.026H64.3212V186.843H63.2469V160.823C63.2633 160.291 63.0681 159.773 62.704 159.385C62.3399 158.996 61.8366 158.767 61.3042 158.748L61.3043 158.748ZM62.9757 160.823V186.843H59.6334V160.823C59.617 160.594 59.6481 160.363 59.7246 160.146C59.8012 159.929 59.9216 159.73 60.0784 159.562C60.2352 159.394 60.4249 159.259 60.6359 159.168C60.8468 159.076 61.0745 159.028 61.3046 159.028C61.5346 159.028 61.7622 159.076 61.9731 159.168C62.1841 159.259 62.3739 159.394 62.5306 159.562C62.6874 159.73 62.8078 159.929 62.8844 160.146C62.961 160.363 62.9921 160.594 62.9757 160.823V160.823ZM59.3622 160.823V186.843H56.0165V160.823C56.0003 160.594 56.0317 160.363 56.1084 160.146C56.1851 159.929 56.3057 159.73 56.4626 159.562C56.6196 159.394 56.8095 159.259 57.0205 159.168C57.2316 159.076 57.4592 159.028 57.6893 159.028C57.9195 159.028 58.1471 159.076 58.3582 159.168C58.5692 159.259 58.7591 159.394 58.916 159.562C59.0729 159.73 59.1935 159.929 59.2703 160.146C59.347 160.363 59.3783 160.594 59.3622 160.823V160.823ZM55.2343 98.5146H54.613V91.8842H55.2343V98.5146ZM49.3196 91.4644L52.0321 83.3976L54.7443 91.4644H49.3196ZM54.193 91.8842V186.843H49.8674V91.8842H54.193ZM49.4474 119.641V124.394H39.8536V119.641H49.4474ZM46.142 158.748C46.0282 159.14 45.7904 159.484 45.4642 159.729C45.1381 159.974 44.7413 160.106 44.3335 160.106C43.9257 160.106 43.5289 159.974 43.2028 159.729C42.8766 159.484 42.6388 159.14 42.525 158.748C41.9927 158.767 41.4894 158.996 41.1254 159.385C40.7613 159.773 40.566 160.291 40.5824 160.823V186.843H39.8536V125.028H49.4474V186.843H48.0895V160.823C48.1054 160.29 47.9092 159.772 47.5442 159.383C47.1791 158.995 46.6749 158.766 46.1418 158.748L46.142 158.748ZM47.8175 160.823V186.843H44.4707V160.823C44.4546 160.593 44.4859 160.363 44.5627 160.146C44.6396 159.929 44.7603 159.73 44.9172 159.562C45.0742 159.394 45.264 159.259 45.4751 159.168C45.6862 159.076 45.9139 159.028 46.144 159.028C46.3742 159.028 46.6019 159.076 46.813 159.168C47.0241 159.259 47.214 159.394 47.371 159.562C47.5279 159.73 47.6486 159.929 47.7255 160.146C47.8023 160.363 47.8336 160.593 47.8175 160.823V160.823ZM44.1996 160.823V186.843H40.8538V160.823C40.8376 160.594 40.8688 160.363 40.9456 160.146C41.0223 159.929 41.143 159.73 41.2999 159.562C41.4569 159.394 41.6467 159.259 41.8578 159.168C42.0688 159.076 42.2965 159.028 42.5266 159.028C42.7568 159.028 42.9845 159.076 43.1956 159.168C43.4066 159.259 43.5965 159.394 43.7534 159.562C43.9103 159.73 44.031 159.929 44.1078 160.146C44.1846 160.363 44.2157 160.594 44.1996 160.823V160.823ZM34.5562 112.941L37.2683 104.874L39.9805 112.941H34.5562ZM39.434 113.36V186.843H35.108V113.36H39.434ZM34.6882 142.286V147.059H24.9789V142.286L34.6882 142.286ZM31.6427 158.748C31.5289 159.14 31.291 159.484 30.9648 159.729C30.6387 159.974 30.2418 160.106 29.834 160.106C29.4261 160.106 29.0294 159.974 28.7032 159.729C28.3771 159.484 28.1392 159.14 28.0254 158.748C27.493 158.767 26.9897 158.996 26.6255 159.385C26.2613 159.773 26.0659 160.291 26.0822 160.823V186.843H24.9789V147.694H34.6882V186.843H33.5892V160.823C33.6053 160.29 33.4094 159.772 33.0446 159.384C32.6797 158.995 32.1755 158.766 31.6426 158.748L31.6427 158.748ZM33.317 160.823V186.843H29.9713V160.823C29.9551 160.593 29.9863 160.363 30.063 160.146C30.1397 159.929 30.2603 159.73 30.4172 159.561C30.5742 159.393 30.764 159.259 30.9751 159.167C31.1862 159.075 31.414 159.028 31.6442 159.028C31.8744 159.028 32.1021 159.075 32.3132 159.167C32.5243 159.259 32.7142 159.393 32.8711 159.561C33.028 159.73 33.1486 159.929 33.2253 160.146C33.302 160.363 33.3333 160.593 33.317 160.823V160.823ZM29.7001 160.823V186.843H26.3544V160.823C26.3382 160.593 26.3694 160.363 26.4462 160.146C26.5229 159.929 26.6435 159.73 26.8004 159.562C26.9573 159.393 27.1472 159.259 27.3583 159.167C27.5693 159.075 27.797 159.028 28.0272 159.028C28.2574 159.028 28.4851 159.075 28.6962 159.167C28.9072 159.259 29.0972 159.393 29.2542 159.562C29.4111 159.73 29.5317 159.929 29.6084 160.146C29.6851 160.363 29.7163 160.593 29.7001 160.823V160.823ZM19.6866 137.075L22.3988 129.012L25.1112 137.075H19.6866ZM24.5591 137.494V186.843H20.2388V137.494L24.5591 137.494ZM19.8187 159.028V186.843H18.6042V170.412C18.6042 169.277 17.9374 168.346 17.1143 168.346C17.0805 168.683 16.923 168.994 16.6724 169.221C16.4218 169.448 16.096 169.573 15.7581 169.573C15.4201 169.573 15.0942 169.448 14.8436 169.221C14.593 168.994 14.4355 168.683 14.4017 168.346C13.5786 168.346 12.9083 169.277 12.9083 170.412V186.843H11.9696V159.028L19.8187 159.028ZM18.333 170.412V186.843H15.8956V170.412C15.8956 169.424 16.443 168.618 17.1143 168.618C17.785 168.618 18.3329 169.424 18.3329 170.412L18.333 170.412ZM15.6243 170.412V186.843H13.1797V170.412C13.1797 169.424 13.7276 168.618 14.4019 168.618C15.0764 168.618 15.6241 169.424 15.6241 170.412L15.6243 170.412ZM6.67175 154.846L9.38428 146.779L12.1017 154.846H6.67175ZM11.5496 155.266V186.843H7.224V155.266L11.5496 155.266ZM7.2196 187.476H126.585L130.173 195.535H3.63037L7.2196 187.476ZM3.22803 196.168H9.13403L7.35962 202.967L7.16614 203.725L7.35596 203.528V205.742H3.22803V196.168ZM3.22803 206.375H7.35596V232.436L6.95703 233.967L7.35596 233.564V274.976H3.22803V206.375ZM45.1873 283.999H1.30151V275.611H45.1917L45.1873 283.999ZM64.1987 283.999H55.082V259.527C55.5698 258.771 56.2472 258.157 57.0466 257.745C57.846 257.334 58.7394 257.139 59.6377 257.18C60.5378 257.131 61.4347 257.323 62.2362 257.735C63.0378 258.148 63.7151 258.766 64.1987 259.527V283.999ZM78.7227 283.999H69.6057V259.527C70.0892 258.766 70.7664 258.148 71.5679 257.735C72.3693 257.323 73.2661 257.131 74.1661 257.18C75.0645 257.139 75.9579 257.334 76.7574 257.745C77.557 258.157 78.2347 258.771 78.7228 259.527L78.7227 283.999ZM82.3273 283.999H79.356L79.3229 259.303C78.7559 258.455 77.9885 257.76 77.0887 257.279C76.1889 256.798 75.1844 256.547 74.1642 256.547C73.144 256.547 72.1395 256.798 71.2397 257.279C70.34 257.76 69.5726 258.455 69.0056 259.303L68.9725 259.444V283.999H64.8323V259.444L64.7988 259.303C64.2318 258.455 63.4644 257.76 62.5646 257.279C61.6647 256.798 60.6602 256.547 59.6399 256.547C58.6196 256.547 57.6151 256.798 56.7152 257.279C55.8154 257.76 55.048 258.455 54.481 259.303L54.4485 283.999H51.4762V238.503L51.4843 238.256C51.6575 232.824 53.9006 222.888 66.9022 217.266C79.9037 222.888 82.147 232.824 82.3196 238.256L82.3273 238.503V283.999ZM87.9829 283.999H82.9617L82.9417 237.927C82.6862 232.264 80.2205 222.27 67.0214 216.623L66.9022 216.574L66.7834 216.623C53.5839 222.27 51.1186 232.264 50.8632 237.927L50.8422 283.999H45.8218V238.339L45.8375 238.034C46.0772 230.609 49.1305 217.035 66.9022 209.372C84.6738 217.035 87.7275 230.609 87.9663 238.034L87.983 238.339L87.9829 283.999ZM67.0214 208.737L66.9022 208.689L66.7834 208.737C48.8175 216.426 45.5328 230.057 45.2161 237.704L45.1917 274.976H17.641V233.564L18.0406 233.96L17.641 232.428V206.375H116.163V232.428L115.764 233.96L116.163 233.564V274.976H88.6128L88.5884 237.704C88.2715 230.057 84.987 216.426 67.0212 208.737L67.0214 208.737ZM132.503 283.999H88.6165L88.6128 275.611H132.503L132.503 283.999ZM226.098 283.999H133.136V279.563H153.472V259.172L153.148 259.18C145.31 259.452 137.707 261.925 131.21 266.317V254.743H226.098L226.098 283.999ZM260.753 149.373H262.816V150.953H260.753V149.373ZM255.781 152.097V151.373H267.79V152.097H267.306V161.761L262.012 156.172L261.782 155.933L256.267 161.761V152.097L255.781 152.097ZM261.782 156.847L286.966 183.451C285.349 182.982 283.476 182.488 281.385 182.01V181.171L281.208 181.08C275.21 178.432 268.779 176.903 262.231 176.569L261.914 176.537C261.87 176.536 261.826 176.538 261.782 176.544C261.74 176.538 261.697 176.536 261.654 176.537L261.338 176.544V176.569C254.789 176.903 248.357 178.432 242.359 181.08L242.183 181.171V182.01C240.092 182.488 238.216 182.982 236.597 183.451L261.782 156.847ZM261.991 179.319C261.931 179.316 261.871 179.319 261.811 179.327C261.733 179.32 261.655 179.318 261.576 179.319L261.251 179.327V179.351C255.046 179.665 248.879 180.505 242.816 181.862V181.566C248.785 178.979 255.173 177.492 261.671 177.179L261.749 177.17L261.897 177.179C268.395 177.492 274.783 178.979 280.751 181.566V181.862C274.689 180.505 268.522 179.665 262.317 179.351V179.31L261.991 179.319ZM240.137 283.999H232.301V266.844H240.137V283.999ZM257.568 283.999H241.607V278.887H257.568V283.999ZM279.442 283.999H265.823V278.887H279.442V283.999ZM285.077 283.999H279.862V278.467H265.403V283.999H257.988V278.467H241.187V283.999H240.557V266.425H231.881V283.999H226.81V259.592H285.077V283.999ZM293.613 283.999H285.497V259.592H293.613V283.999ZM296.758 283.999H294.033V259.592H296.758V283.999ZM296.758 258.958H226.81V252.851H296.758V258.958ZM296.758 252.217H226.81V199.963H229.996V186.348C240.118 182.549 250.782 180.395 261.584 179.969L261.704 179.952L261.984 179.969C272.785 180.396 283.447 182.549 293.567 186.348V199.963H296.716V200.276H296.758V252.217ZM297.391 283.999V199.33H294.201V185.929L294.012 185.846C293.963 185.821 291.818 184.932 288.172 183.814L267.726 162.205V152.517H268.21V150.953H263.236V148.953H260.333V150.953H255.361V152.517H255.848V162.197L235.388 183.814C231.745 184.932 229.601 185.821 229.552 185.846L229.362 185.929V199.33H226.712V165.152H127V155.266H127.716L127.626 154.986L124.419 145.463L124.217 146.056L121.118 155.266H121.835V158.394H113.986V137.494H114.701L114.611 137.219L111.406 127.691L111.204 128.284L108.109 137.494H108.826V141.651H99.1156V113.36H99.8319L99.7419 113.08L96.5354 103.553L96.3331 104.145L93.2386 113.36H93.9507V118.991H84.3571V91.8842H85.0693L84.9784 91.6083L81.7726 82.0808L81.5703 82.6732L78.5701 91.6043V75.9401H79.517L79.5538 75.6599C79.607 75.2569 80.8051 65.6875 74.8125 60.7528L67.4534 10.0264C67.6349 9.94007 67.7894 9.80589 67.9004 9.63831C68.0114 9.47073 68.0747 9.27607 68.0834 9.07525V7.75879C68.0803 7.46038 67.9628 7.17452 67.7552 6.9601C67.5477 6.74569 67.2658 6.61904 66.9677 6.60627V1.38328C66.9678 1.37461 66.9663 1.36601 66.963 1.35798C66.9598 1.34994 66.9548 1.34265 66.9487 1.33651C66.9426 1.33037 66.9354 1.32551 66.9274 1.32223C66.9194 1.31894 66.9108 1.3173 66.9021 1.31739C66.8934 1.31728 66.8848 1.3189 66.8767 1.32216C66.8686 1.32543 66.8613 1.33027 66.8551 1.3364C66.8489 1.34253 66.8439 1.34984 66.8406 1.35788C66.8372 1.36593 66.8355 1.37456 66.8356 1.38328V6.60627C66.5375 6.61908 66.2558 6.74579 66.0485 6.96023C65.8411 7.17467 65.7239 7.4605 65.7211 7.75879V9.07526C65.7296 9.27609 65.7927 9.47078 65.9037 9.63839C66.0147 9.80599 66.1693 9.94016 66.3508 10.0264L58.9911 60.7529C52.9995 65.6876 54.1963 75.2569 54.2507 75.6599L54.2876 75.9401H55.234V91.6043L52.233 82.6732L52.0319 82.0808L48.826 91.6083L48.7351 91.8842H49.4471V118.991H39.8535V113.36H40.5649L37.4701 104.145L37.2682 103.553L34.0624 113.08L33.9713 113.36H34.6881V141.651H24.9786V137.494H25.6954L22.601 128.284L22.3986 127.691L19.1921 137.219L19.1018 137.494H19.8185V158.394H11.9695V155.266H12.6862L9.58606 146.056L9.38416 145.463L6.17834 154.986L6.08728 155.266H6.80371V186.85L2.9436 195.535H2.59375V274.976H0.667969V284.632H297.395L297.391 283.999Z" fill="#7A899E" stroke="#7A899E" stroke-width="0.75" stroke-miterlimit="10"/>
<path d="M272.429 260.506H265.82V266.128H272.429V260.506ZM272.009 265.757H266.24V260.868H272.009V265.757Z" fill="#7A899E" stroke="#7A899E" stroke-width="0.75" stroke-miterlimit="10"/>
<path d="M272.429 266.425H265.82V278.228H272.429V266.425ZM272.009 277.81H266.24V266.844H272.009V277.81Z" fill="#7A899E" stroke="#7A899E" stroke-width="0.75" stroke-miterlimit="10"/>
<path d="M279.446 260.506H272.837V266.128H279.446V260.506ZM279.027 265.757H273.257V260.868H279.027V265.757Z" fill="#7A899E" stroke="#7A899E" stroke-width="0.75" stroke-miterlimit="10"/>
<path d="M279.446 266.425H272.837V278.228H279.446V266.425ZM279.027 277.81H273.257V266.844H279.027V277.81Z" fill="#7A899E" stroke="#7A899E" stroke-width="0.75" stroke-miterlimit="10"/>
<path d="M249.315 260.506H241.668V266.128H249.315V260.506ZM248.896 265.757H242.088V260.868H248.896V265.757Z" fill="#7A899E" stroke="#7A899E" stroke-width="0.75" stroke-miterlimit="10"/>
<path d="M249.315 266.425H241.668V278.228H249.315V266.425ZM248.896 277.81H242.088V266.844H248.896V277.81Z" fill="#7A899E" stroke="#7A899E" stroke-width="0.75" stroke-miterlimit="10"/>
<path d="M257.506 260.506H249.858V266.128H257.506V260.506ZM257.086 265.757H250.278V260.868H257.086V265.757Z" fill="#7A899E" stroke="#7A899E" stroke-width="0.75" stroke-miterlimit="10"/>
<path d="M257.506 266.425H249.858V278.228H257.506V266.425ZM257.086 277.81H250.278V266.844H257.086V277.81Z" fill="#7A899E" stroke="#7A899E" stroke-width="0.75" stroke-miterlimit="10"/>
<path d="M240.146 260.53H232.502V266.153H240.146V260.53ZM239.726 265.791H232.923V260.901H239.726V265.791Z" fill="#7A899E" stroke="#7A899E" stroke-width="0.75" stroke-miterlimit="10"/>
<path d="M239.507 267.362H233.313V274.549H239.507V267.362ZM239.087 274.129H233.733V267.782H239.087V274.129Z" fill="#7A899E" stroke="#7A899E" stroke-width="0.75" stroke-miterlimit="10"/>
<path d="M239.507 275.306H233.313V282.492H239.507V275.306ZM239.087 282.072H233.733V275.725H239.087V282.072Z" fill="#7A899E" stroke="#7A899E" stroke-width="0.75" stroke-miterlimit="10"/>
<path d="M293.025 260.365H286.09V267.239H293.025V260.365ZM292.605 266.851H286.509V260.752H292.605V266.851Z" fill="#7A899E" stroke="#7A899E" stroke-width="0.75" stroke-miterlimit="10"/>
<path d="M286.662 277.223H289.049V274.836H286.662V277.223ZM287.081 275.256H288.629V276.804H287.081V275.256Z" fill="#7A899E" stroke="#7A899E" stroke-width="0.75" stroke-miterlimit="10"/>
<path d="M286.662 280.303H289.049V277.916H286.662V280.303ZM287.081 278.336H288.629V279.883H287.081V278.336Z" fill="#7A899E" stroke="#7A899E" stroke-width="0.75" stroke-miterlimit="10"/>
<path d="M286.662 283.382H289.049V280.994H286.662V283.382ZM287.081 281.414H288.629V282.961H287.081V281.414Z" fill="#7A899E" stroke="#7A899E" stroke-width="0.75" stroke-miterlimit="10"/>
<path d="M286.662 274.145H289.049V271.758H286.662V274.145ZM287.081 272.178H288.629V273.725H287.081V272.178Z" fill="#7A899E" stroke="#7A899E" stroke-width="0.75" stroke-miterlimit="10"/>
<path d="M286.662 271.067H289.049V268.68H286.662V271.067ZM287.081 269.1H288.629V270.647H287.081V269.1Z" fill="#7A899E" stroke="#7A899E" stroke-width="0.75" stroke-miterlimit="10"/>
<path d="M289.925 277.223H292.316V274.836H289.925V277.223ZM290.345 275.256H291.896V276.804H290.345V275.256Z" fill="#7A899E" stroke="#7A899E" stroke-width="0.75" stroke-miterlimit="10"/>
<path d="M289.925 280.303H292.316V277.916H289.925V280.303ZM290.345 278.336H291.896V279.883H290.345V278.336Z" fill="#7A899E" stroke="#7A899E" stroke-width="0.75" stroke-miterlimit="10"/>
<path d="M289.925 283.382H292.316V280.994H289.925V283.382ZM290.345 281.414H291.896V282.961H290.345V281.414Z" fill="#7A899E" stroke="#7A899E" stroke-width="0.75" stroke-miterlimit="10"/>
<path d="M289.925 274.145H292.316V271.758H289.925V274.145ZM290.345 272.178H291.896V273.725H290.345V272.178Z" fill="#7A899E" stroke="#7A899E" stroke-width="0.75" stroke-miterlimit="10"/>
<path d="M289.925 271.067H292.316V268.68H289.925V271.067ZM290.345 269.1H291.896V270.647H290.345V269.1Z" fill="#7A899E" stroke="#7A899E" stroke-width="0.75" stroke-miterlimit="10"/>
<path d="M257.633 153.275H256.542V154.254H257.633V153.275Z" fill="#7A899E" stroke="#7A899E" stroke-width="0.75" stroke-miterlimit="10"/>
<path d="M259.205 153.275H258.106V154.254H259.205V153.275Z" fill="#7A899E" stroke="#7A899E" stroke-width="0.75" stroke-miterlimit="10"/>
<path d="M260.765 153.275H259.671V154.254H260.765V153.275Z" fill="#7A899E" stroke="#7A899E" stroke-width="0.75" stroke-miterlimit="10"/>
<path d="M263.893 153.275H262.803V154.254H263.893V153.275Z" fill="#7A899E" stroke="#7A899E" stroke-width="0.75" stroke-miterlimit="10"/>
<path d="M265.461 153.275H264.366V154.254H265.461V153.275Z" fill="#7A899E" stroke="#7A899E" stroke-width="0.75" stroke-miterlimit="10"/>
<path d="M267.025 153.275H265.935V154.254H267.025V153.275Z" fill="#7A899E" stroke="#7A899E" stroke-width="0.75" stroke-miterlimit="10"/>
<path d="M280.278 224.213H290.872V211.372H280.278V224.213ZM280.697 211.792H290.452V223.793H280.697V211.792Z" fill="#7A899E" stroke="#7A899E" stroke-width="0.75" stroke-miterlimit="10"/>
<path d="M232.691 224.213H243.29V211.372H232.691V224.213ZM233.112 211.792H242.87V223.793H233.112V211.792Z" fill="#7A899E" stroke="#7A899E" stroke-width="0.75" stroke-miterlimit="10"/>
<path d="M265.51 224.213H273.923V211.372H265.51V224.213ZM265.93 211.792H273.503V223.793H265.93V211.792Z" fill="#7A899E" stroke="#7A899E" stroke-width="0.75" stroke-miterlimit="10"/>
<path d="M249.644 224.213H258.066V211.372H249.644V224.213ZM250.064 211.792H257.646V223.793H250.064V211.792Z" fill="#7A899E" stroke="#7A899E" stroke-width="0.75" stroke-miterlimit="10"/>
<path d="M280.278 245.121H290.872V232.271H280.278V245.121ZM280.697 232.691H290.452V244.702H280.697V232.691Z" fill="#7A899E" stroke="#7A899E" stroke-width="0.75" stroke-miterlimit="10"/>
<path d="M232.691 245.121H243.29V232.271H232.691V245.121ZM233.112 232.691H242.87V244.702H233.112V232.691Z" fill="#7A899E" stroke="#7A899E" stroke-width="0.75" stroke-miterlimit="10"/>
<path d="M265.51 245.121H273.923V232.271H265.51V245.121ZM265.93 232.691H273.503V244.702H265.93V232.691Z" fill="#7A899E" stroke="#7A899E" stroke-width="0.75" stroke-miterlimit="10"/>
<path d="M249.644 245.121H258.066V232.271H249.644V245.121ZM250.064 232.691H257.646V244.702H250.064V232.691Z" fill="#7A899E" stroke="#7A899E" stroke-width="0.75" stroke-miterlimit="10"/>
<path d="M257.501 190.357H249.682V198.045H257.501V190.357ZM257.082 197.625H250.101V190.777H257.082V197.625Z" fill="#7A899E" stroke="#7A899E" stroke-width="0.75" stroke-miterlimit="10"/>
<path d="M257.501 198.466H249.682V202.936H257.501V198.466ZM257.082 202.516H250.101V198.885H257.082V202.516Z" fill="#7A899E" stroke="#7A899E" stroke-width="0.75" stroke-miterlimit="10"/>
<path d="M265.692 190.357H257.875V198.045H265.692V190.357ZM265.272 197.625H258.296V190.777H265.272V197.625Z" fill="#7A899E" stroke="#7A899E" stroke-width="0.75" stroke-miterlimit="10"/>
<path d="M265.692 198.466H257.875V202.936H265.692V198.466ZM265.272 202.516H258.296V198.885H265.272V202.516Z" fill="#7A899E" stroke="#7A899E" stroke-width="0.75" stroke-miterlimit="10"/>
<path d="M273.891 190.357H266.07V198.045H273.891V190.357ZM273.47 197.625H266.49V190.777H273.47V197.625Z" fill="#7A899E" stroke="#7A899E" stroke-width="0.75" stroke-miterlimit="10"/>
<path d="M273.891 198.466H266.07V202.936H273.891V198.466ZM273.47 202.516H266.49V198.885H273.47V202.516Z" fill="#7A899E" stroke="#7A899E" stroke-width="0.75" stroke-miterlimit="10"/>
<path d="M265.564 165.959H258.003V174.899H265.564V165.959ZM265.144 174.479H258.423V166.379H265.144V174.479Z" fill="#7A899E" stroke="#7A899E" stroke-width="0.75" stroke-miterlimit="10"/>
<path d="M203.902 195.181H195.337V207.339H203.902V195.181ZM203.483 206.919H195.757V195.601H203.483V206.919Z" fill="#7A899E" stroke="#7A899E" stroke-width="0.75" stroke-miterlimit="10"/>
<path d="M221.715 195.181H213.146V207.339H221.715V195.181ZM221.296 206.919H213.566V195.601H221.296V206.919Z" fill="#7A899E" stroke="#7A899E" stroke-width="0.75" stroke-miterlimit="10"/>
<path d="M153.225 195.181H144.661V207.339H153.225V195.181ZM152.806 206.919H145.081V195.601H152.806V206.919Z" fill="#7A899E" stroke="#7A899E" stroke-width="0.75" stroke-miterlimit="10"/>
<path d="M169.853 235.152H178.694V218.097H169.853V235.152ZM170.273 218.517H178.274V234.733H170.273V218.517Z" fill="#7A899E" stroke="#7A899E" stroke-width="0.75" stroke-miterlimit="10"/>
<path d="M195.197 235.152H204.043V218.097H195.197V235.152ZM195.617 218.517H203.623V234.733H195.617V218.517Z" fill="#7A899E" stroke="#7A899E" stroke-width="0.75" stroke-miterlimit="10"/>
<path d="M144.524 235.152H153.365V218.097H144.524V235.152ZM144.944 218.517H152.946V234.733H144.944V218.517Z" fill="#7A899E" stroke="#7A899E" stroke-width="0.75" stroke-miterlimit="10"/>
<path d="M131.972 235.152H140.816V218.097H131.972V235.152ZM132.391 218.517H140.397V234.733H132.391V218.517Z" fill="#7A899E" stroke="#7A899E" stroke-width="0.75" stroke-miterlimit="10"/>
<path d="M181.233 260.11H167.343V281.728H181.233V260.11ZM180.599 281.094H167.976V260.745H180.599V281.094Z" fill="#7A899E" stroke="#7A899E" stroke-width="0.75" stroke-miterlimit="10"/>
<path d="M219.114 267.634L219.003 267.543C212.203 262.369 203.957 259.446 195.416 259.18L195.09 259.172V279.562H219.114L219.114 267.634ZM218.481 278.927H195.724V259.822C203.956 260.155 211.893 262.983 218.481 267.93V278.927Z" fill="#7A899E" stroke="#7A899E" stroke-width="0.75" stroke-miterlimit="10"/>
<path d="M199.355 171.902L199.322 171.854C199.264 171.755 197.787 169.449 193.641 169.449C189.498 169.449 188.019 171.755 187.962 171.854L187.929 171.902V187.271H199.355V171.902ZM197.157 186.851H190.123V174.841H197.157V186.851ZM198.935 186.851H197.577V174.421H189.703V186.851H188.349V172.026C188.579 171.713 190.065 169.869 193.641 169.869C197.218 169.869 198.704 171.713 198.935 172.026L198.935 186.851Z" fill="#7A899E" stroke="#7A899E" stroke-width="0.75" stroke-miterlimit="10"/>
<path d="M179.973 171.902L179.945 171.854C179.883 171.755 178.41 169.449 174.265 169.449C170.121 169.449 168.643 171.755 168.582 171.854L168.552 171.902V187.271H179.973V171.902ZM177.784 186.851H170.746V174.841H177.784V186.851ZM179.553 186.851H178.204V174.421H170.326V186.851H168.972V172.026C169.203 171.713 170.688 169.869 174.265 169.869C177.842 169.869 179.323 171.713 179.553 172.026V186.851Z" fill="#7A899E" stroke="#7A899E" stroke-width="0.75" stroke-miterlimit="10"/>
<path d="M160.597 171.902L160.567 171.854C160.506 171.755 159.029 169.449 154.888 169.449C150.743 169.449 149.27 171.755 149.209 171.854L149.179 171.902V187.271H160.597V171.902ZM158.407 186.851H151.369V174.841H158.407V186.851ZM160.177 186.851H158.827V174.421H150.95V186.851H149.599V172.026C149.83 171.713 151.312 169.869 154.888 169.869C158.46 169.869 159.946 171.713 160.177 172.026V186.851Z" fill="#7A899E" stroke="#7A899E" stroke-width="0.75" stroke-miterlimit="10"/>
<path d="M59.4973 114.628C60.2501 114.628 60.9861 114.405 61.6121 113.986C62.238 113.568 62.726 112.974 63.0143 112.279C63.3026 111.583 63.3782 110.818 63.2317 110.08C63.0851 109.341 62.7229 108.663 62.1909 108.13C61.6589 107.598 60.981 107.235 60.2428 107.087C59.5046 106.94 58.7393 107.015 58.0436 107.302C57.3479 107.59 56.7529 108.077 56.3341 108.703C55.9153 109.328 55.6913 110.064 55.6904 110.817C55.6914 111.826 56.0927 112.794 56.8063 113.509C57.5199 114.223 58.4876 114.626 59.4973 114.628V114.628ZM59.4973 107.434C60.1674 107.434 60.8225 107.632 61.3796 108.005C61.9368 108.377 62.371 108.906 62.6273 109.525C62.8836 110.145 62.9505 110.826 62.8195 111.483C62.6885 112.14 62.3655 112.744 61.8914 113.217C61.4172 113.691 60.8133 114.013 60.156 114.143C59.4987 114.274 58.8175 114.206 58.1986 113.949C57.5797 113.692 57.051 113.257 56.6793 112.699C56.3076 112.142 56.1097 111.487 56.1106 110.816C56.1121 109.919 56.4696 109.059 57.1045 108.425C57.7394 107.791 58.5999 107.434 59.4973 107.434V107.434Z" fill="#7A899E" stroke="#7A899E" stroke-width="0.75" stroke-miterlimit="10"/>
<path d="M44.5494 133.943C45.3018 133.942 46.0372 133.719 46.6626 133.301C47.288 132.882 47.7754 132.288 48.0631 131.593C48.3508 130.898 48.4259 130.133 48.2791 129.395C48.1322 128.657 47.7699 127.979 47.2379 127.447C46.7059 126.915 46.028 126.553 45.2902 126.406C44.5523 126.259 43.7874 126.335 43.0923 126.622C42.3971 126.91 41.8029 127.397 41.3846 128.023C40.9664 128.648 40.7431 129.384 40.7427 130.136C40.7429 131.145 41.1439 132.114 41.8578 132.828C42.5717 133.541 43.5399 133.943 44.5494 133.943ZM44.5494 126.752C45.219 126.753 45.8735 126.952 46.4299 127.324C46.9864 127.697 47.42 128.226 47.6758 128.844C47.9316 129.463 47.9981 130.144 47.8671 130.8C47.736 131.457 47.4132 132.06 46.9395 132.533C46.4657 133.006 45.8623 133.328 45.2056 133.459C44.5488 133.589 43.8682 133.521 43.2498 133.265C42.6313 133.008 42.1029 132.574 41.7312 132.017C41.3595 131.46 41.1614 130.805 41.1617 130.136C41.1623 129.238 41.5196 128.377 42.1549 127.743C42.7902 127.108 43.6515 126.752 44.5494 126.752V126.752Z" fill="#7A899E" stroke="#7A899E" stroke-width="0.75" stroke-miterlimit="10"/>
<path d="M74.3057 107.014C73.5526 107.014 72.8166 107.237 72.1905 107.656C71.5645 108.075 71.0766 108.669 70.7887 109.365C70.5007 110.061 70.4258 110.827 70.5731 111.565C70.7204 112.304 71.0834 112.982 71.6163 113.514C72.1492 114.047 72.8279 114.409 73.5666 114.555C74.3053 114.701 75.0709 114.625 75.7664 114.337C76.462 114.048 77.0562 113.559 77.474 112.933C77.8917 112.306 78.1143 111.57 78.1135 110.816C78.112 109.808 77.7102 108.84 76.9963 108.127C76.2824 107.414 75.3147 107.014 74.3057 107.014V107.014ZM74.3057 114.208C73.636 114.208 72.9814 114.009 72.4245 113.637C71.8677 113.265 71.4337 112.736 71.1773 112.118C70.9209 111.499 70.8537 110.818 70.9841 110.161C71.1145 109.504 71.4367 108.901 71.91 108.427C72.3833 107.953 72.9863 107.63 73.643 107.499C74.2998 107.368 74.9807 107.435 75.5997 107.69C76.2186 107.946 76.7479 108.379 77.1206 108.936C77.4932 109.492 77.6926 110.147 77.6934 110.816C77.6929 111.715 77.3359 112.577 76.7008 113.213C76.0657 113.848 75.2044 114.206 74.3057 114.208Z" fill="#7A899E" stroke="#7A899E" stroke-width="0.75" stroke-miterlimit="10"/>
<path d="M89.2549 126.333C88.5024 126.333 87.7669 126.557 87.1414 126.975C86.5159 127.394 86.0286 127.988 85.741 128.684C85.4534 129.379 85.3785 130.144 85.5257 130.882C85.6729 131.62 86.0355 132.298 86.5679 132.83C87.1003 133.362 87.7785 133.724 88.5166 133.87C89.2548 134.016 90.0198 133.941 90.7149 133.652C91.41 133.364 92.0039 132.876 92.4217 132.25C92.8394 131.624 93.0622 130.888 93.0618 130.136C93.0616 129.636 92.963 129.141 92.7716 128.68C92.5802 128.218 92.2997 127.799 91.9462 127.446C91.5927 127.093 91.1731 126.813 90.7113 126.622C90.2495 126.431 89.7546 126.333 89.2549 126.333V126.333ZM89.2549 133.523C88.5855 133.523 87.9312 133.324 87.3748 132.952C86.8183 132.58 86.3846 132.051 86.1286 131.433C85.8725 130.814 85.8056 130.134 85.9363 129.477C86.067 128.821 86.3894 128.217 86.8627 127.744C87.336 127.271 87.9391 126.948 88.5956 126.818C89.2521 126.687 89.9326 126.754 90.5512 127.01C91.1697 127.266 91.6985 127.699 92.0707 128.256C92.4429 128.812 92.6416 129.466 92.642 130.136C92.6416 131.034 92.2847 131.895 91.6496 132.531C91.0144 133.166 90.1531 133.523 89.2549 133.523V133.523Z" fill="#7A899E" stroke="#7A899E" stroke-width="0.75" stroke-miterlimit="10"/>
</svg>
