<svg width="114" height="37" viewBox="0 0 114 37" fill="none" xmlns="http://www.w3.org/2000/svg">
<g opacity="0.5">
<path opacity="0.5" d="M7.69873 26.5817H15.583C15.7601 25.1915 16.2582 23.8615 17.0378 22.697C17.8175 21.5324 18.8574 20.5652 20.0753 19.8718C21.2932 19.1784 22.6557 18.7778 24.0551 18.7017C25.4544 18.6256 26.8523 18.8761 28.1382 19.4333C28.6118 17.6586 29.4701 16.0098 30.6522 14.6039C31.8344 13.198 33.3114 12.0694 34.9785 11.2983C36.6456 10.5272 38.462 10.1323 40.2988 10.1418C42.1356 10.1512 43.9479 10.5647 45.6071 11.353C47.2727 7.64297 50.1268 4.59366 53.7188 2.68676C57.3107 0.779866 61.4357 0.124096 65.4419 0.823049C69.4481 1.522 73.1073 3.53583 75.8413 6.5464C78.5753 9.55697 80.2283 13.3926 80.5392 17.4475C81.817 17.0345 83.1703 16.9086 84.5024 17.0788C85.8345 17.249 87.1126 17.711 88.2456 18.432C89.3786 19.153 90.3385 20.1151 91.0569 21.2497C91.7753 22.3843 92.2344 23.6635 92.4015 24.996H107.138C107.442 24.996 107.733 25.1168 107.948 25.3317C108.163 25.5466 108.284 25.8381 108.284 26.142C108.284 26.446 108.163 26.7375 107.948 26.9524C107.733 27.1673 107.442 27.2881 107.138 27.2881H91.327C91.1765 27.2881 91.0276 27.2584 90.8885 27.2009C90.7495 27.1433 90.6231 27.0589 90.5167 26.9524C90.4103 26.846 90.3259 26.7197 90.2683 26.5806C90.2107 26.4416 90.181 26.2926 90.181 26.1421C90.1811 24.47 89.569 22.8557 88.4604 21.6039C87.3519 20.3521 85.8234 19.5493 84.1636 19.3472C82.5037 19.145 80.8273 19.5574 79.4507 20.5066C78.0741 21.4557 77.0925 22.8759 76.6912 24.4991C76.6552 24.6452 76.5907 24.7828 76.5016 24.904C76.4124 25.0252 76.3004 25.1276 76.1716 25.2055C76.0429 25.2834 75.9001 25.3351 75.7513 25.3578C75.6026 25.3804 75.4508 25.3736 75.3047 25.3376C75.1586 25.3016 75.0211 25.2372 74.8999 25.1481C74.7787 25.0589 74.6762 24.9468 74.5984 24.818C74.5205 24.6893 74.4687 24.5465 74.446 24.3978C74.4234 24.249 74.4302 24.0973 74.4662 23.9512C75.0114 21.7203 76.38 19.778 78.2974 18.5139C78.2227 14.8584 76.8981 11.3388 74.5442 8.54111C72.1903 5.74341 68.9491 3.83641 65.3602 3.13763C61.7714 2.43885 58.0514 2.99045 54.8198 4.70059C51.5882 6.41073 49.0399 9.17622 47.5991 12.5366C48.7823 13.3945 49.8065 14.4526 50.6254 15.6631C50.7955 15.9149 50.8587 16.224 50.8009 16.5224C50.7431 16.8208 50.5692 17.084 50.3174 17.2541C50.1927 17.3383 50.0526 17.3972 49.9052 17.4273C49.7577 17.4574 49.6057 17.4582 49.458 17.4296C49.1596 17.3718 48.8965 17.1979 48.7263 16.9461C47.597 15.2704 45.9966 13.9668 44.1272 13.1996C42.2578 12.4324 40.203 12.2361 38.2222 12.6353C36.2413 13.0346 34.4231 14.0116 32.9968 15.4431C31.5706 16.8746 30.6003 18.6964 30.2083 20.6787C31.4974 21.7094 32.4783 23.0747 33.0437 24.6254H61.304C61.6079 24.6254 61.8995 24.7461 62.1144 24.961C62.3293 25.176 62.4501 25.4674 62.4501 25.7714C62.4501 26.0753 62.3293 26.3668 62.1144 26.5818C61.8995 26.7967 61.6079 26.9174 61.304 26.9174H32.1995C31.9447 26.9173 31.6973 26.8324 31.4961 26.6762C31.2949 26.5199 31.1515 26.3011 31.0884 26.0543C30.6807 24.4622 29.7059 23.0736 28.347 22.1492C26.9882 21.2247 25.3386 20.828 23.708 21.0333C22.0774 21.2387 20.5779 22.0322 19.4907 23.2647C18.4036 24.4973 17.8036 26.0842 17.8035 27.7277C17.8035 27.8782 17.7738 28.0272 17.7162 28.1663C17.6586 28.3053 17.5742 28.4316 17.4678 28.5381C17.3614 28.6445 17.235 28.7289 17.0959 28.7865C16.9569 28.8441 16.808 28.8737 16.6575 28.8737H7.69873C7.39479 28.8737 7.10335 28.753 6.88843 28.538C6.67351 28.3231 6.55273 28.0316 6.55273 27.7277C6.55273 27.4237 6.67351 27.1322 6.88843 26.9173C7.10335 26.7024 7.39479 26.5817 7.69873 26.5817V26.5817Z" fill="#7A899E"/>
<path opacity="0.5" d="M1.81543 22.6348H12.6383C12.9423 22.6348 13.2337 22.7555 13.4486 22.9704C13.6635 23.1853 13.7843 23.4768 13.7843 23.7808C13.7843 24.0847 13.6635 24.3762 13.4486 24.5911C13.2337 24.8061 12.9423 24.9268 12.6383 24.9268H1.81543C1.51148 24.9268 1.22005 24.8061 1.00513 24.5911C0.790206 24.3762 0.669434 24.0847 0.669434 23.7808C0.669434 23.4768 0.790206 23.1853 1.00513 22.9704C1.22005 22.7555 1.51148 22.6348 1.81543 22.6348Z" fill="#7A899E"/>
<path opacity="0.5" d="M97.0571 22.146C97.0571 21.9955 97.0868 21.8465 97.1444 21.7074C97.202 21.5684 97.2864 21.4421 97.3928 21.3356C97.4992 21.2292 97.6256 21.1448 97.7646 21.0872C97.9037 21.0296 98.0526 21 98.2031 21H112.44C112.744 21 113.035 21.1207 113.25 21.3357C113.465 21.5506 113.586 21.8421 113.586 22.146C113.586 22.45 113.465 22.7415 113.25 22.9564C113.035 23.1713 112.744 23.2921 112.44 23.2921H98.2032C98.0527 23.2921 97.9037 23.2624 97.7646 23.2048C97.6256 23.1473 97.4992 23.0628 97.3928 22.9564C97.2864 22.85 97.202 22.7236 97.1444 22.5846C97.0868 22.4455 97.0571 22.2965 97.0571 22.146Z" fill="#7A899E"/>
<path opacity="0.5" d="M54.545 34.625H94.7321C95.036 34.625 95.3274 34.7457 95.5424 34.9607C95.7573 35.1756 95.8781 35.4671 95.8781 35.771C95.8781 36.075 95.7573 36.3665 95.5424 36.5814C95.3274 36.7963 95.036 36.917 94.7321 36.917H54.545C54.2411 36.917 53.9497 36.7963 53.7347 36.5814C53.5198 36.3665 53.399 36.075 53.399 35.771C53.399 35.4671 53.5198 35.1756 53.7347 34.9607C53.9497 34.7457 54.2411 34.625 54.545 34.625Z" fill="#7A899E"/>
</g>
</svg>
