<svg width="120" height="120" viewBox="0 0 120 120" fill="none" xmlns="http://www.w3.org/2000/svg">
<g clip-path="url(#clip0_256_5652)">
<path d="M67.2186 85.1676L38.4965 16.7513L12.4856 14" stroke="#212833" stroke-width="3" stroke-linecap="round" stroke-linejoin="round"/>
<path d="M116.407 73.375L77.121 89.8922" stroke="#212833" stroke-width="3" stroke-linecap="round" stroke-linejoin="round"/>
<path d="M77.492 97.7142C79.4356 93.0219 77.2074 87.6424 72.5151 85.6988C67.8228 83.7552 62.4433 85.9834 60.4997 90.6757C58.5561 95.368 60.7843 100.747 65.4766 102.691C70.1689 104.635 75.5484 102.406 77.492 97.7142Z" stroke="#212833" stroke-width="3" stroke-linecap="round" stroke-linejoin="round"/>
<path d="M71.6229 94.1943C71.6234 93.6744 71.4696 93.1659 71.1811 92.7334C70.8926 92.3008 70.4822 91.9635 70.002 91.7642C69.5217 91.5649 68.9931 91.5125 68.4831 91.6137C67.9731 91.7148 67.5045 91.965 67.1367 92.3325C66.7688 92.7 66.5183 93.1684 66.4166 93.6783C66.315 94.1882 66.3669 94.7169 66.5658 95.1973C66.7647 95.6777 67.1016 96.0884 67.5339 96.3773C67.9662 96.6662 68.4745 96.8205 68.9944 96.8205C69.6912 96.8205 70.3594 96.5439 70.8522 96.0514C71.3451 95.559 71.6223 94.891 71.6229 94.1943Z" stroke="#212833" stroke-width="3" stroke-linecap="round" stroke-linejoin="round"/>
<path d="M31.5557 38.3613H2" stroke="#212833" stroke-width="3" stroke-linecap="round" stroke-linejoin="round"/>
<path d="M38.1258 58.0684H20.6096" stroke="#212833" stroke-width="3" stroke-linecap="round" stroke-linejoin="round"/>
<path d="M34.8408 76.458H8.56775" stroke="#212833" stroke-width="3" stroke-linecap="round" stroke-linejoin="round"/>
<path d="M99.7665 20.7353L58.7697 37.9688L76.0032 78.9656L117 61.7321L99.7665 20.7353Z" stroke="#ED1847" stroke-width="3" stroke-linecap="round" stroke-linejoin="round"/>
<path d="M63.6998 49.1437L104.499 31.9912" stroke="#ED1847" stroke-width="3" stroke-linecap="round" stroke-linejoin="round"/>
<path d="M67.9645 15.5745L52.2002 22.2012L58.8269 37.9655L74.5913 31.3388L67.9645 15.5745Z" stroke="#ED1847" stroke-width="3" stroke-linecap="round" stroke-linejoin="round"/>
<path d="M80.2866 19.0631L71.9526 22.5664L75.4559 30.9003L83.7898 27.3971L80.2866 19.0631Z" stroke="#ED1847" stroke-width="3" stroke-linecap="round" stroke-linejoin="round"/>
</g>
<defs>
<clipPath id="clip0_256_5652">
<rect width="120" height="120" fill="white"/>
</clipPath>
</defs>
</svg>
