<svg width="105" height="119" viewBox="0 0 105 119" fill="none" xmlns="http://www.w3.org/2000/svg">
<path d="M11.3267 88.0621C5.2449 79.5307 1.98379 69.3107 2.00006 58.8335C2.00006 30.9817 24.5804 8.40137 52.4347 8.40137C63.6909 8.40137 74.5854 11.5345 82.9849 17.7556" stroke="#212833" stroke-width="3" stroke-linecap="round" stroke-linejoin="round"/>
<path d="M92.8114 28.6104C99.3526 37.3273 102.88 47.9357 102.862 58.8339C102.862 86.6882 80.2813 109.269 52.4296 109.269C41.123 109.269 30.4296 105.917 22.0276 99.6354" stroke="#212833" stroke-width="3" stroke-linecap="round" stroke-linejoin="round"/>
<path d="M65.7161 20.3718L83.0452 17.7588L74.9849 2" stroke="#212833" stroke-width="3" stroke-linecap="round" stroke-linejoin="round"/>
<path d="M39.9849 96.6836L22.0251 99.6359L31.1985 116.998" stroke="#212833" stroke-width="3" stroke-linecap="round" stroke-linejoin="round"/>
<path d="M81.4797 56.9004V72.9406L53.7335 86.8124L24.2537 72.9406V57.0637" stroke="#ED1847" stroke-width="3" stroke-linecap="round" stroke-linejoin="round"/>
<path d="M24.2537 41.7227L53.7335 53.8633L81.4797 41.7227" stroke="#ED1847" stroke-width="3" stroke-linecap="round" stroke-linejoin="round"/>
<path d="M53.7336 53.8623V86.8095" stroke="#ED1847" stroke-width="3" stroke-linecap="round" stroke-linejoin="round"/>
<path d="M53.7336 53.8633L45.0627 66.8684L15.5829 52.9965L24.2537 41.7227" stroke="#ED1847" stroke-width="3" stroke-linecap="round" stroke-linejoin="round"/>
<path d="M24.2537 41.7222L52.8667 32.1846L81.4797 41.7222" stroke="#ED1847" stroke-width="3" stroke-linecap="round" stroke-linejoin="round"/>
<path d="M81.4798 41.7227L89.2838 52.9965L63.2713 66.0015L53.7336 53.8633" stroke="#ED1847" stroke-width="3" stroke-linecap="round" stroke-linejoin="round"/>
<path d="M52.8668 32.1846V44.3253" stroke="#ED1847" stroke-width="3" stroke-linecap="round" stroke-linejoin="round"/>
</svg>
