<svg width="120" height="120" viewBox="0 0 120 120" fill="none" xmlns="http://www.w3.org/2000/svg">
<g clip-path="url(#clip0_256_5624)">
<path d="M101.095 74.2852V97.1907L61.4758 117L19.3796 97.1907V74.519" stroke="#212833" stroke-width="3" stroke-linecap="round" stroke-linejoin="round"/>
<path d="M19.3796 52.6182L61.4758 69.9526L101.095 52.6182" stroke="#212833" stroke-width="3" stroke-linecap="round" stroke-linejoin="round"/>
<path d="M61.4758 69.9551V117.001" stroke="#212833" stroke-width="3" stroke-linecap="round" stroke-linejoin="round"/>
<path d="M61.4759 69.9526L49.0938 88.5221L7 68.7127L19.3797 52.6182" stroke="#212833" stroke-width="3" stroke-linecap="round" stroke-linejoin="round"/>
<path d="M101.095 52.6182L112.237 68.7127L75.0954 87.2846L61.4758 69.9526" stroke="#212833" stroke-width="3" stroke-linecap="round" stroke-linejoin="round"/>
<path d="M26.1977 33.2432L7.54077 39.4637L19.3797 52.618" stroke="#212833" stroke-width="3" stroke-linecap="round" stroke-linejoin="round"/>
<path d="M34.2367 47.666L19.3796 52.6184" stroke="#212833" stroke-width="3" stroke-linecap="round" stroke-linejoin="round"/>
<path d="M101.095 52.6184L86.2377 47.666" stroke="#212833" stroke-width="3" stroke-linecap="round" stroke-linejoin="round"/>
<path d="M93.88 33.1113L112.934 39.4641L101.095 52.6185" stroke="#212833" stroke-width="3" stroke-linecap="round" stroke-linejoin="round"/>
<path d="M86.6249 10.8691V39.8913L60.8288 51.3334L33.4172 39.8913V10.8691" stroke="#ED1847" stroke-width="3" stroke-linecap="round" stroke-linejoin="round"/>
<path d="M33.4172 10.8691L60.8288 22.1554L86.6249 10.8691" stroke="#ED1847" stroke-width="3" stroke-linecap="round" stroke-linejoin="round"/>
<path d="M60.8289 22.1533V51.3314" stroke="#ED1847" stroke-width="3" stroke-linecap="round" stroke-linejoin="round"/>
<path d="M86.6249 10.8679L60.0211 2L33.4172 10.8679" stroke="#ED1847" stroke-width="3" stroke-linecap="round" stroke-linejoin="round"/>
</g>
<defs>
<clipPath id="clip0_256_5624">
<rect width="120" height="120" fill="white"/>
</clipPath>
</defs>
</svg>
