<svg width="95" height="95" viewBox="0 0 95 95" fill="none" xmlns="http://www.w3.org/2000/svg">
<g filter="url(#filter0_dd_248_3119)">
<rect x="25" y="25" width="45" height="45" rx="22.5" fill="#212833"/>
</g>
<path fill-rule="evenodd" clip-rule="evenodd" d="M46.5314 35.5H49.4674C51.5614 35.5047 52.0423 35.5232 53.1534 35.5739C54.4839 35.6346 55.3926 35.8459 56.1878 36.1549C57.0098 36.4744 57.7069 36.9018 58.4019 37.5968C59.0969 38.2918 59.5243 38.9889 59.8438 39.8109C60.1528 40.6061 60.3641 41.5148 60.4248 42.8453C60.4836 44.1342 60.499 44.575 60.5 47.6696V48.3291C60.499 51.4237 60.4836 51.8645 60.4248 53.1534C60.3641 54.4839 60.1528 55.3926 59.8438 56.1878C59.5243 57.0098 59.0969 57.7069 58.4019 58.4019C57.7069 59.0969 57.0098 59.5243 56.1878 59.8438C55.3926 60.1528 54.4839 60.3641 53.1534 60.4248C51.8645 60.4836 51.4237 60.499 48.3291 60.5H47.6696C44.575 60.499 44.1342 60.4836 42.8453 60.4248C41.5148 60.3641 40.6061 60.1528 39.8109 59.8438C38.9889 59.5243 38.2918 59.0969 37.5968 58.4019C36.9018 57.7069 36.4744 57.0098 36.1549 56.1878C35.8459 55.3926 35.6346 54.4839 35.5739 53.1534C35.5232 52.0423 35.5047 51.5614 35.5 49.4674V46.5314C35.5047 44.4373 35.5232 43.9564 35.5739 42.8453C35.6346 41.5148 35.8459 40.6061 36.1549 39.8109C36.4744 38.9889 36.9018 38.2918 37.5968 37.5968C38.2918 36.9018 38.9889 36.4744 39.8109 36.1549C40.6061 35.8459 41.5148 35.6346 42.8453 35.5739C43.9564 35.5232 44.4373 35.5047 46.5314 35.5H49.4674H46.5314ZM48.9163 37.7514H47.0824C44.5732 37.7541 44.1343 37.7698 42.948 37.8239C41.7292 37.8795 41.0673 38.0831 40.6268 38.2543C40.0433 38.4811 39.6269 38.752 39.1895 39.1895C38.752 39.6269 38.4811 40.0433 38.2543 40.6268C38.0831 41.0673 37.8795 41.7292 37.8239 42.948C37.7698 44.1343 37.7541 44.5732 37.7514 47.0824V48.9163C37.7541 51.4255 37.7698 51.8644 37.8239 53.0507C37.8795 54.2695 38.0831 54.9314 38.2543 55.3719C38.4811 55.9554 38.752 56.3718 39.1895 56.8092C39.6269 57.2467 40.0433 57.5176 40.6268 57.7444C41.0673 57.9156 41.7292 58.1192 42.948 58.1748C44.266 58.2349 44.6613 58.2477 47.9994 58.2477C51.3374 58.2477 51.7328 58.2349 53.0507 58.1748C54.2695 58.1192 54.9314 57.9156 55.3719 57.7444C55.9554 57.5176 56.3718 57.2467 56.8092 56.8092C57.2467 56.3718 57.5176 55.9554 57.7444 55.3719C57.9156 54.9314 58.1192 54.2695 58.1748 53.0507C58.2349 51.7326 58.2477 51.3372 58.2477 47.9994C58.2477 44.6615 58.2349 44.2661 58.1748 42.948C58.1192 41.7292 57.9156 41.0673 57.7444 40.6268C57.5176 40.0433 57.2467 39.6269 56.8092 39.1895C56.3718 38.752 55.9554 38.4811 55.3719 38.2543C54.9314 38.0831 54.2695 37.8795 53.0507 37.8239C51.8644 37.7698 51.4255 37.7541 48.9163 37.7514ZM47.9994 41.749C51.4513 41.749 54.2497 44.5474 54.2497 47.9994C54.2497 51.4513 51.4513 54.2497 47.9994 54.2497C44.5474 54.2497 41.749 51.4513 41.749 47.9994C41.749 44.5474 44.5474 41.749 47.9994 41.749ZM47.9994 43.9421C45.7586 43.9421 43.9421 45.7586 43.9421 47.9994C43.9421 50.2401 45.7586 52.0566 47.9994 52.0566C50.2401 52.0566 52.0566 50.2401 52.0566 47.9994C52.0566 45.7586 50.2401 43.9421 47.9994 43.9421ZM54.7705 39.6656C55.6335 39.6656 56.3331 40.3652 56.3331 41.2282C56.3331 42.0912 55.6335 42.7907 54.7705 42.7907C53.9076 42.7907 53.208 42.0912 53.208 41.2282C53.208 40.3652 53.9076 39.6656 54.7705 39.6656Z" fill="#F4F6F8"/>
<defs>
<filter id="filter0_dd_248_3119" x="0.107913" y="0.107913" width="94.7842" height="94.7842" filterUnits="userSpaceOnUse" color-interpolation-filters="sRGB">
<feFlood flood-opacity="0" result="BackgroundImageFix"/>
<feColorMatrix in="SourceAlpha" type="matrix" values="0 0 0 0 0 0 0 0 0 0 0 0 0 0 0 0 0 0 127 0" result="hardAlpha"/>
<feOffset dx="6.22302" dy="6.22302"/>
<feGaussianBlur stdDeviation="9.33453"/>
<feColorMatrix type="matrix" values="0 0 0 0 0 0 0 0 0 0 0 0 0 0 0 0 0 0 1 0"/>
<feBlend mode="normal" in2="BackgroundImageFix" result="effect1_dropShadow_248_3119"/>
<feColorMatrix in="SourceAlpha" type="matrix" values="0 0 0 0 0 0 0 0 0 0 0 0 0 0 0 0 0 0 127 0" result="hardAlpha"/>
<feOffset dx="-6.22302" dy="-6.22302"/>
<feGaussianBlur stdDeviation="9.33453"/>
<feColorMatrix type="matrix" values="0 0 0 0 0.231373 0 0 0 0 0.266667 0 0 0 0 0.317647 0 0 0 1 0"/>
<feBlend mode="normal" in2="effect1_dropShadow_248_3119" result="effect2_dropShadow_248_3119"/>
<feBlend mode="normal" in="SourceGraphic" in2="effect2_dropShadow_248_3119" result="shape"/>
</filter>
</defs>
</svg>
