<svg width="66" height="66" viewBox="0 0 66 66" fill="none" xmlns="http://www.w3.org/2000/svg">
<mask id="mask0_253_2978" style="mask-type:alpha" maskUnits="userSpaceOnUse" x="0" y="0" width="66" height="66">
<circle cx="33" cy="33" r="33" fill="#C4C4C4"/>
</mask>
<g mask="url(#mask0_253_2978)">
<path d="M65.6294 0.267578H-0.370605V66.2676H65.6294V0.267578Z" fill="white"/>
<path d="M14.0074 0.267578H-17.7078V66.2676H14.0074V0.267578Z" fill="#D14A43"/>
<path d="M82.9227 0.267578H51.2075V66.2676H82.9227V0.267578Z" fill="#D14A43"/>
<path d="M33.4248 53.4996L33.0231 46.2793C33.0231 45.1064 33.5272 45.1064 34.0883 45.2089C34.6435 45.3169 41.303 46.433 41.303 46.433C40.939 45.6026 40.6748 44.7319 40.5159 43.8392C40.5159 42.9198 42.4651 41.6633 44.6006 39.776C46.7331 37.905 48.2052 36.9317 48.2052 36.7376C48.2052 36.53 46.682 36.5783 46.682 35.4596C47.0116 33.6643 47.4868 31.8988 48.1028 30.1805C46.8639 30.624 45.5906 30.9648 44.2958 31.1995C43.4871 31.1995 42.2119 29.7274 42.2119 28.5491C42.2119 28.5491 38.3049 33.4858 37.4907 33.1192C36.6738 32.7688 38.9601 23.1164 38.9601 23.1164C38.9601 23.1164 36.6252 25.0954 35.8163 24.8528C34.9993 24.5938 32.7186 18.9561 32.7186 18.9561C32.7186 18.9561 32.678 18.8779 32.6294 18.8779C32.5836 18.8779 32.5432 18.9561 32.5432 18.9561C32.5432 18.9561 30.2622 24.5938 29.448 24.8528C28.6391 25.0955 26.2961 23.1164 26.2961 23.1164C26.2961 23.1164 28.5879 32.7688 27.771 33.1192C26.9593 33.4858 23.0499 28.5491 23.0499 28.5491C23.0499 29.7274 21.7826 31.1995 20.9712 31.1995C19.6738 30.9646 18.398 30.6238 17.1562 30.1805C17.7745 31.8985 18.2515 33.664 18.5825 35.4596C18.5825 36.5783 17.0536 36.53 17.0536 36.7376C17.0536 36.9317 18.5256 37.9049 20.6639 39.776C22.7965 41.6633 24.7539 42.9198 24.7539 43.8392C24.5943 44.7321 24.3292 45.6028 23.964 46.433C23.964 46.433 30.6128 45.3168 31.1763 45.2089C31.7398 45.1064 32.2467 45.1064 32.2467 46.2793L31.8395 53.4996H33.4248Z" fill="#C4473F"/>
</g>
</svg>
