<svg width="40" height="40" viewBox="0 0 40 40" fill="none" xmlns="http://www.w3.org/2000/svg">
<g clip-path="url(#clip0_248_2796)">
<path d="M1.19995 26.7969C1.39995 27.3448 1.59995 27.8848 1.86395 28.4207C2.10395 28.9487 2.37195 29.4646 2.66395 29.9766V30.0046C2.87595 30.3725 3.09995 30.7285 3.33195 31.0764C3.41995 31.2084 3.51595 31.3364 3.60795 31.4764C3.75195 31.6804 3.89195 31.8764 4.03995 32.0803C4.18795 32.2843 4.30395 32.4123 4.43995 32.5763C4.57595 32.7403 4.67595 32.8763 4.79995 33.0203C4.92395 33.1642 5.12395 33.3802 5.28795 33.5562L5.38795 33.6602L5.59995 33.8882C5.78795 34.0801 5.99995 34.2881 6.17195 34.4561L6.33995 34.6161L6.42795 34.6961C6.64395 34.8961 6.86395 35.096 7.08795 35.276L7.25195 35.412L7.28795 35.44C7.53195 35.64 7.77995 35.84 8.03595 36.024C8.0452 36.0258 8.05471 36.0258 8.06395 36.024L8.16395 36.0959C8.43995 36.2999 8.71995 36.4959 9.00795 36.6839L9.07995 36.7279C9.30795 36.8759 9.53595 37.0239 9.76795 37.1598C10.168 37.3878 10.54 37.5998 10.94 37.7998C11.02 37.8438 11.108 37.8758 11.192 37.9198C11.508 38.0717 11.828 38.2237 12.152 38.3637L12.308 38.4237H12.36C12.704 38.5677 13.052 38.7037 13.404 38.8237L13.468 38.8477H13.544C13.92 38.9757 14.3 39.0956 14.68 39.1996H14.708H14.8C15.2 39.3116 15.632 39.4116 16.052 39.4956C16.576 39.6036 17.104 39.6836 17.652 39.7476L17.88 39.7756H17.928H18.044H18.272C18.6 39.8036 18.932 39.8236 19.26 39.8356H19.412C19.524 39.8356 19.636 39.8356 19.752 39.8356C19.868 39.8356 19.968 39.8356 20.076 39.8356H20.148C20.496 39.8356 20.844 39.8356 21.188 39.8036L21.564 39.7756C21.832 39.7756 22.104 39.7276 22.364 39.6996L22.728 39.6556C23.068 39.6076 23.408 39.5556 23.744 39.4916H23.844H23.916C24.316 39.4156 24.716 39.3236 25.116 39.2196L25.292 39.1676C25.648 39.0716 26.004 38.9677 26.352 38.8517C26.504 38.8037 26.652 38.7437 26.8 38.6877C27.064 38.5957 27.328 38.4997 27.6 38.3957C27.872 38.2917 28.132 38.1597 28.4 38.0397C28.544 37.9758 28.688 37.9158 28.828 37.8478C29.228 37.6478 29.628 37.4478 30.028 37.2038L30.232 37.0798C30.716 36.7919 31.176 36.4839 31.624 36.1639H31.656L31.776 36.0799C32.176 35.776 32.576 35.46 32.976 35.128L33.156 34.9761C33.5426 34.6374 33.9146 34.2855 34.272 33.9202L34.4 33.8762C34.768 33.4762 35.12 33.1002 35.452 32.6763L35.512 32.6043C36.9228 30.8645 38.0341 28.9018 38.8 26.7969H1.19995Z" fill="#E10E00"/>
<path d="M38.8 26.7528C39.5721 24.6164 39.9778 22.365 40 20.0935C40.0141 17.7587 39.6174 15.4396 38.828 13.2422H1.2C0.407661 15.4341 0.00164035 17.7468 0 20.0775H0C0.00891985 22.3409 0.403918 24.5862 1.168 26.7168L38.8 26.7528Z" fill="url(#paint0_linear_248_2796)"/>
<path fill-rule="evenodd" clip-rule="evenodd" d="M38.828 13.2427C38.4278 12.1187 37.9271 11.0331 37.332 9.999C37.12 9.63104 36.896 9.27507 36.66 8.92711C36.572 8.79112 36.48 8.66313 36.388 8.52715C36.24 8.31917 36.096 8.12719 35.944 7.91121C35.792 7.69523 35.692 7.59124 35.544 7.43126C35.396 7.27127 35.296 7.12329 35.168 6.9753C35.04 6.82732 34.84 6.60334 34.672 6.42336L34.372 6.10339C34.176 5.90341 33.972 5.70343 33.78 5.52345L33.528 5.28347C33.3066 5.08349 33.0826 4.88751 32.856 4.69553L32.672 4.54355C32.42 4.33957 32.164 4.14359 31.904 3.94761L31.764 3.84762C31.532 3.67963 31.3 3.51565 31.064 3.35566C30.828 3.19568 30.508 2.9757 30.212 2.79972C30.112 2.73973 30.004 2.68773 29.904 2.62774C29.656 2.49175 29.408 2.34777 29.156 2.22778L28.904 2.10379L28.524 1.92781C28.348 1.84382 28.176 1.75982 27.996 1.68383H27.968L27.772 1.59584L27.6 1.51585C27.268 1.37986 26.928 1.24788 26.588 1.11589L26.504 1.08789C26.136 0.963904 25.768 0.847915 25.392 0.743926L25.26 0.711929C24.4741 0.498995 23.6768 0.330742 22.872 0.207979C22.0093 0.0826133 21.1395 0.0131421 20.268 0C20.192 0 20.116 0 20.044 0H20C19.6 0 19.236 0 18.856 0.0319968L18.564 0.0519948C18.252 0.0706596 17.94 0.0986568 17.628 0.135986L17.364 0.167983C17.024 0.211979 16.688 0.263974 16.352 0.327967L16.188 0.351965H16.164L15.876 0.415958C15.644 0.463954 15.416 0.515948 15.188 0.571943C15.104 0.591941 15.016 0.607939 14.932 0.631937L14.792 0.671933H14.76C14.424 0.763924 14.088 0.859914 13.756 0.967903C13.7301 0.978271 13.7033 0.986302 13.676 0.991901H13.648L13.584 1.0159L13.388 1.08789C13.08 1.19588 12.772 1.30787 12.464 1.43186H12.416L11.908 1.65583C11.688 1.75582 11.468 1.84382 11.252 1.9518C10.852 2.15178 10.452 2.35176 10.052 2.59574L9.85195 2.71973L9.81195 2.74373C9.47195 2.94771 9.14795 3.17168 8.81995 3.39566C8.49195 3.61964 8.15595 3.86361 7.83595 4.11159C7.59995 4.29157 7.36395 4.47155 7.13595 4.66353L6.87995 4.87951C6.51195 5.20348 6.15995 5.53945 5.81995 5.88341L5.61595 6.09139C5.26395 6.46335 4.92395 6.84332 4.60395 7.23928L4.52395 7.33527C3.091 9.10308 1.96717 11.1003 1.19995 13.2427H38.828Z" fill="#F1F1F1"/>
</g>
<defs>
<linearGradient id="paint0_linear_248_2796" x1="-9.312" y1="13.7661" x2="49.8395" y2="26.3433" gradientUnits="userSpaceOnUse">
<stop stop-color="#0B4EAB"/>
<stop offset="1" stop-color="#0B4EAB"/>
</linearGradient>
<clipPath id="clip0_248_2796">
<rect width="40" height="40" fill="white"/>
</clipPath>
</defs>
</svg>
