<svg width="81" height="130" viewBox="0 0 81 130" fill="none" xmlns="http://www.w3.org/2000/svg">
<path d="M40.1763 0.140876C33.0652 0.115713 26.076 1.98639 19.9282 5.56027C13.7804 9.13415 8.69621 14.2821 5.19926 20.474C1.70232 26.6659 -0.0810509 33.6779 0.0327759 40.7881C0.146603 47.8984 2.15352 54.8498 5.84688 60.9265L37.095 123.7L39.9875 129.51L42.8793 123.7L73.8443 61.4943C77.6601 55.4554 79.7887 48.5045 80.0088 41.3644C80.2289 34.2243 78.5325 27.1556 75.0959 20.8931C71.6593 14.6305 66.608 9.40279 60.467 5.75332C54.3261 2.10386 47.3198 0.165879 40.1763 0.140845L40.1763 0.140876ZM42.6197 71.3982C36.0983 71.9287 29.5712 70.445 23.9199 67.1475C18.2687 63.85 13.7655 58.8976 11.0187 52.9592C8.27189 47.0208 7.41372 40.3824 8.5601 33.9407C9.70649 27.499 12.8022 21.5642 17.4291 16.938C22.0561 12.3119 27.9913 9.21709 34.4332 8.07174C40.8751 6.92639 47.5133 7.78563 53.4513 10.5334C59.3893 13.2812 64.341 17.7851 67.6375 23.4369C70.9341 29.0887 72.4168 35.616 71.8853 42.1373C71.2684 49.6925 67.9868 56.7827 62.6263 62.1424C57.2657 67.5021 50.175 70.7825 42.6197 71.3982V71.3982Z" fill="#7A899E"/>
</svg>
